<svg xmlns="http://www.w3.org/2000/svg" width="46.01" height="46" viewBox="0 0 46.01 46">
  <path id="Icon_awesome-instagram" data-name="Icon awesome-instagram" d="M23,13.444A11.794,11.794,0,1,0,34.8,25.238,11.775,11.775,0,0,0,23,13.444Zm0,19.461a7.668,7.668,0,1,1,7.668-7.668A7.681,7.681,0,0,1,23,32.905ZM38.032,12.961a2.751,2.751,0,1,1-2.751-2.751A2.744,2.744,0,0,1,38.032,12.961Zm7.811,2.792c-.174-3.685-1.016-6.949-3.716-9.638S36.174,2.584,32.489,2.4c-3.8-.216-15.181-.216-18.979,0C9.836,2.574,6.572,3.416,3.872,6.1S.341,12.058.156,15.743c-.216,3.8-.216,15.181,0,18.979.174,3.685,1.016,6.949,3.716,9.638s5.953,3.531,9.638,3.716c3.8.216,15.181.216,18.979,0,3.685-.174,6.949-1.016,9.638-3.716s3.531-5.953,3.716-9.638c.216-3.8.216-15.171,0-18.969ZM40.937,38.8a7.763,7.763,0,0,1-4.373,4.373c-3.028,1.2-10.213.924-13.559.924s-10.542.267-13.559-.924A7.763,7.763,0,0,1,5.073,38.8c-1.2-3.028-.924-10.213-.924-13.559S3.882,14.7,5.073,11.678A7.763,7.763,0,0,1,9.446,7.306C12.474,6.1,19.659,6.382,23,6.382s10.542-.267,13.559.924a7.763,7.763,0,0,1,4.373,4.373c1.2,3.028.924,10.213.924,13.559S42.138,35.779,40.937,38.8Z" transform="translate(0.005 -2.238)"/>
</svg>
