<svg xmlns="http://www.w3.org/2000/svg" width="35" height="40.107" stroke="none" fill="#fcfcfc" viewBox="0 0 35 40.107">
  <g id="tucuman" transform="translate(-1.511 -1.511)">
    <g id="g52" transform="translate(10.476 1.511)">
      <path id="path54" d="M1212.453,14.464l.092.018.153.02.143-.007.107-.01.152-.015.233.057.171.117.245.135.089.02.192.043.342.037.16.005.1,0,.209-.106,0,0,.144-.121.062-.009.333-.048.036-.02.141-.077.214-.06.207-.128.128-.071.215-.108.015,0,.083-.023.143.01h.029l.21.005.129-.008.036.013.152.057.268.116.143.126.042.187,0,.162V14.8l.006.213.043.2.064.123.056.107.074.217.045.214.036.216.057.159.023.063.073.154.023.049.079.118.163.036.576.127.264.058.183.04.252.056.944.208.447.1.252.055.945.208.447.1.188.041.065-.014.173-.037.172.034.225.073.332-.109-.164.241-.66.968-.033.028-.03.03-.021.036-.015.038-.009.04-.007.04-.01.039-.02.037-.014.039v.041l-.005.04-.008.04-.01.04-.01.04-.013.039-.022.036-.021.036-.021.036-.023.035-.027.033-.027.033-.024.034-.024.035-.027.033-.028.032-.028.032-.03.031-.036.025-.037.023-.034.027-.033.028-.037.023-.039.022-.031.029-.021.036-.019.037-.018.038-.013.039-.015.039-.023.034-.04.02-.035.024-.02.037-.028.032-.036.025-.034.026-.027.033-.032.061-.024.035-.025.034-.026.033-.032.029-.028.031-.009.04-.006.04-.009.04-.011.04-.016.038-.019.037-.021.036-.022.036-.023.035-.026.032-.036.025-.027.032-.022.036-.014.039-.007.04,0,.041,0,.041-.009.04-.012.039-.008.04,0,.041,0,.041,0,.041-.007.04-.009.04v.04l0,.041v.041l-.009.039-.01.014-.015.021-.018.037-.014.039-.014.039-.017.038-.018.037-.012.04,0,.04.013.039.018.038.008.039-.006.04-.011.04-.012.039-.014.039-.013.039-.011.04-.01.04-.01.04-.01.04-.008.04-.006.04-.006.04-.006.04-.006.04-.006.04-.006.04-.006.04-.008.04-.008.04,0,.04,0,.041v.326l0,.041-.008.04-.008.04-.017.037-.032.029-.04.017-.041.017-.043-.013-.036-.025-.043-.011-.045-.008-.045,0-.043.011-.045,0-.042.015-.037.024-.033.028-.032.029-.031.03-.029.031-.021.036-.014.039-.012.039-.011.04-.01.04-.007.041-.022.034-.037.025-.04.02-.039.021-.033.028-.026.033-.019.037,0,.006-1.169-.043-.03.039.011.043-.04,0-.046,0-.01.019-.009.018V24.2l.017.039-.005.039-.024.035-.035.025-.044.012-.034.026,0,.039.017.038.026.034-.011.039-.029.031-.029.031-.014.038,0,.041.009.04,0,.041-.01.04-.027.033-.029.027,0,0v.041l.018.037.017.038.016.038.01.038-.01.04-.01.04,0,.041.022.035.038.022.04.023-.01.039-.02.038-.039.01-.044-.011-.044-.007h-.046l-.043.012-.04.02-.037.023-.041.017-.04.019-.037.024-.041.017-.044.009-.045.008-.044.009-.045.006-.045-.006-.044-.012-.039-.02-.037-.024-.04-.02-.042-.015-.043-.013-.044-.012-.042-.014-.018-.007-.024-.009-.045-.006h-.045l-.045,0-.045.007-.044.01-.04.019-.039.021-.035.026-.031.03-.038.021-.044.013-.039.021-.035.027-.039.018-.046,0-.045-.009-.04-.016-.043.011-.043.015-.042.017-.044.005-.045,0-.044-.011-.045,0-.045-.008-.045,0-.044.008-.039.021-.035.026-.031.03-.029.031-.031.03-.039.02h0l-.04.017-.039.021-.04.019-.042.016-.042.015-.044.012-.045.01-.044,0-.045-.009-.044-.01-.044-.011-.045-.007-.045,0h-.046l-.045,0-.042.015-.044.011-.046.005-.044-.006-.043-.013-.041-.017-.04-.02-.041-.018-.038-.022-.04-.019-.039-.021-.033-.028-.028-.033-.03-.03-.034-.027-.04-.018-.045-.01L1215,25.5l-.035-.025-.032-.029-.033-.028-.029-.032,0,0-.023-.029-.03-.03-.033-.028-.029-.032-.028-.033-.042-.014-.043-.012-.039-.021-.039-.021-.04-.018-.035-.025-.029-.032-.035-.026-.035-.026-.041-.018-.038-.023-.035-.026-.026-.033-.04-.019-.044-.009-.041-.019-.037-.024-.046-.007-.03.026-.019.039-.01.039-.007.04-.014.039-.014.039-.012.04-.019.037-.025.034-.029.032-.034.027-.041.018-.041.018-.042.017h-.044l-.037-.024-.026-.034-.021-.036-.01-.04-.01-.04-.017-.038-.006-.04-.008-.04-.006-.04,0-.041-.013-.039-.022-.035-.032-.029-.036-.024-.034-.027-.036-.025-.038-.023-.019-.037-.013-.039,0-.041.018-.036.025-.035.018-.038.024-.035.03-.031.041-.018.037-.027-.007-.028-.046-.017-.04-.02-.015-.036.006-.04.021-.036.028-.032.038-.025.028-.029-.013-.04-.009-.039.005-.041.023-.035.031-.03.035-.026.037-.024.036-.024.035-.026.033-.028.03-.03.028-.033.022-.035.006-.024,0-.016-.01-.039-.021-.038-.038-.016h-.047l-.045.007-.044,0-.044-.013-.045-.007-.04.017-.024.035-.013.039-.013.04-.031.028-.044.009-.042.007-.031.031-.038.023-.032.029-.018.037,0,.029,0,.011-.009.04-.012.039-.021.036-.018.038.021.037-.029.022-.044.019-.039.023-.029.031-.045.007-.043-.01-.034-.028-.03-.031-.041-.016-.045,0h-.045l-.045-.007-.04-.02-.04-.019-.04-.02-.041-.017-.044-.01-.045-.005h-.045l-.045,0-.045,0-.044-.007-.042-.015-.042-.015-.043-.014-.044-.012-.045-.007h-.016l-.03,0h-.045l-.045,0h-.045l-.045.007-.007,0-.034.012L1211.7,24l-.035.025-.043.014-.04.019-.038.022-.04.02-.041.018-.038.022-.041.016-.044.009-.045.007-.045,0h-.045l-.045.006-.045.007-.045.006-.046,0-.046,0-.043.009-.039.021-.037.024-.036.026-.039.017h-.046l-.043-.011-.032-.028-.03-.031-.026-.033-.024-.035-.028-.032-.03-.031-.033-.028-.04-.019-.038-.022-.038-.022-.038-.023-.021-.015-.014-.01-.033-.028-.03-.031-.028-.032-.029-.032-.028-.032-.033-.028-.041-.017-.043-.014-.043-.013-.044-.011-.045,0h-.046l-.045,0-.042.015-.044.011-.045,0-.045-.006-.044-.011-.045,0-.044,0-.04.02-.042.013h-.136l-.045-.006-.045-.008-.044-.009-.039-.021-.039-.019-.046,0-.045-.008-.044,0-.044.01-.044.012-.088.022,0-.005-.018-.038-.014-.039-.012-.039-.006-.04v-.041l0-.041,0-.04.006-.041.009-.04,0-.01.009-.029.017-.038.022-.036.029-.033.023-.035,0-.039-.007-.041-.01-.041,0-.04.016-.037.024-.036.012-.039.008-.04.005-.041,0-.042,0-.04-.016-.037-.025-.035-.026-.034-.029-.032-.025-.033-.008-.039v-.042l-.015-.038-.022-.036-.025-.034-.026-.034-.022-.035,0-.04.007-.041.012-.04.012-.039,0-.04-.005-.041,0-.041,0-.041-.007-.04-.01-.022-.007-.015-.023-.035-.023-.035-.019-.037-.014-.039-.01-.04-.015-.038-.021-.036-.022-.036-.018-.038-.012-.039-.006-.04,0-.041.005-.04.019-.037.025-.034.027-.033.025-.034.02-.037.009-.041-.012-.038-.025-.036-.024-.034-.025-.034-.026-.034-.028-.033-.023-.034-.014-.038-.01-.04-.01-.04-.01-.04-.009-.04-.005-.04v-.042l.016-.036.036-.026.031-.03.021-.035h0l.018-.038.015-.039.013-.039.014-.039.016-.038.017-.038.019-.037.021-.036.022-.036.018-.037.005-.04.021-.057.094-.21.049-.145-.023-.128-.161-.188-.033-.071.063-.178.1-.139.064-.072.013-.089-.085-.1,0,0-.029-.033-.083-.152.1-.069.135-.129.011-.045.022-.092,0-.117-.024-.129.034-.092.176-.15.008-.131-.028-.06-.021-.043-.045-.064v0l-.069-.1,0-.09v-.027l.036-.271.023-.038.153-.253.087-.273.031-.3-.018-.1-.037-.2.027-.24.057-.1.044-.074.066-.193.065-.157h.288l.291-.013.093,0,.334.018.158.08.031.016.285.053.165-.026.115-.03.08-.021-.067-.142.185-.1.052-.027.131-.085.168-.165.129-.049.137-.053.216-.068.042-.013.155.03" transform="translate(-1208.37 -14.11)" fill-rule="evenodd"/>
    </g>
    <g id="g60" transform="translate(1.511 4.265)">
      <path id="path62" d="M1879.4,178.541l.114.166-.06.191-.011.2.062.185.035.057.036.058.194.032.085-.031.173-.063.181-.069.1-.04.26-.065.158-.1.333-.093.021-.011.23-.122.062-.066.061-.064.035-.2.025-.05.062-.122.172-.117.1-.186.1-.115.165,0,.022.016.093.07.22,0h.012l.23-.087.131-.047.08-.029.23-.085.245.005h.014l.167.031.156.086.163.09.156.064.1.043.253.079.083.026.34.006.215.013.138.008.165.01.237.014h.125l.182,0,.137-.022.059-.009.146-.023.417-.093.3-.041.065-.018.192-.054h.111l.041.027.128.084.158.065.05,0,.152.011h.227l.2-.047.24-.036h.359l.118.007.123.007.025.02.107.068.087.163.009.032.061.212.1.3.042.19.025.112.045.352.043.241-.031.1,0,.124.044.195-.2.221-.081.073-.129.117-.241.212-.034.03-.207.139-.02.138-.019.129-.014.094-.01.388-.009.028-.081.262-.052.315.022.4v.026l.018.331.047.155.049.162.118.341.032.459,0,.049.034.491,0,.068.036.289.026.207-.173.028.121.289.073.174-.082.077.088.183.055.115-.148.428.1.451.106.482.075.343-.742-.152-.534-.11-.667-.137-.032-.007-.081.383-.1.483-.213,1.016-.1.483-.1.456-.627-.087-.271-.038-.25-.035,0,.019-.225.923-.387-.1-.245-.006-.17,0-.034.074-.115.683-.031.182-1.344-.231,0-.034.031-.263-.6-.114.077-.4-.34-.054-.648-.1-.7-.111.138-.574-.015,0-1.223-.185,0,.019-.184.792-.784-.137-.488-.086-1.668-.293-.251-.044.093-.447-.912-.192-.078.036-.035.025-.03.031-.033.029-.033.028-.036.026-.039.02-.044.007-.06,0v-.01l.008-.04.011-.04.014-.038.029-.032.021-.037.016-.038.006-.04v-.245l-.006-.04-.014-.039-.017-.038-.017-.038-.017-.038-.015-.038-.011-.04-.007-.04-.007-.041,0-.041.005-.04.014-.039.012-.04v-.041l-.011-.04-.026-.032-.033-.029-.028-.032-.016-.038-.015-.039-.018-.038-.021-.036-.028-.031-.031-.03-.031-.031-.019-.036-.01-.04-.007-.041,0-.041,0-.041.006-.04.006-.04.008-.04,0-.011.007-.029.013-.039.011-.039,0-.04,0-.041,0-.041,0-.041-.007-.04-.01-.04,0-.007-.013-.031-.021-.036-.02-.037-.008-.04-.014-.038-.027-.033-.026-.034-.032-.028-.037-.025-.038-.024-.024-.033-.012-.04-.005-.04,0-.041v-.041l.013-.039.018-.038.022-.036.028-.032.03-.031.018-.037,0-.04-.018-.038-.018-.038-.009-.039.02-.036.027-.034.029-.024,0-.042.012-.039.029-.032.036-.025.039-.022.041-.017.043-.017.039-.021,0-.019,0-.018,0-.042v-.082l0-.041-.014-.039-.019-.037-.016-.038,0-.04,0-.041,0-.041.008-.04.01-.04.008-.04.006-.04,0-.041-.007-.041,0-.039.023-.036.006-.04v-.041l0-.041,0-.041,0-.041,0-.041,0-.041.006-.04.011-.04.019-.037.022-.036.021-.036.018-.037.018-.037.019-.037.017-.031,0-.006.019-.037.026-.033.033-.028.039-.021.04-.02.037-.025.022-.034.007-.041.01-.04.011-.04.012-.039.014-.039.021-.036.029-.031.031-.03.032-.029.033-.028.036-.024.042-.015.045,0,.043-.011.044,0,.045.008.043.011.036.025.043.013.041-.017.04-.017.032-.029.017-.037.008-.04.008-.04,0-.041v-.326l0-.041,0-.04.008-.04.008-.04.006-.04.006-.04.006-.04.006-.04.006-.04.006-.04.006-.04.008-.04.01-.04.01-.04.01-.04.011-.04.013-.039.014-.039.012-.039.011-.04.006-.04-.008-.039-.018-.038-.013-.039,0-.04.012-.04.018-.037.018-.038.013-.039.014-.039.018-.037.015-.021.01-.014.009-.039v-.041l0-.041v-.04l.009-.04.007-.04,0-.041,0-.041,0-.041.008-.04.012-.039.009-.04,0-.041,0-.041.007-.04.014-.039.022-.036.027-.032.036-.025.026-.032.023-.035.022-.036.021-.036.019-.037.016-.038.011-.04.009-.04.006-.04.009-.04.028-.031.032-.029.026-.033.025-.034.024-.035.032-.061.027-.033.034-.026.036-.025.028-.032.02-.037.035-.024.04-.02.023-.034.015-.039.014-.039.018-.038.019-.037.021-.036.03-.029.039-.022.037-.023.033-.028.034-.027.037-.023.036-.025.03-.031.028-.032.028-.032.027-.033.024-.035.024-.034.027-.033.027-.033.023-.035.021-.036.021-.036.022-.036.013-.039.01-.04.01-.04.008-.04.005-.04v-.041l.014-.039.02-.037.01-.039.007-.04.009-.04.015-.038.021-.036.03-.03.033-.028.66-.968.164-.241.024-.008.035-.012.217-.06.028.008.039.011.174.048.2.049" transform="translate(-1854.634 -177.758)" fill-rule="evenodd"/>
      <path id="path64" d="M669.1,198.62l-.021.057-.005.04-.018.037-.022.036-.021.036-.019.037-.017.038-.016.038-.014.039-.013.039-.015.039-.018.038h0l-.021.035-.031.03-.036.026-.016.036v.042l0,.04.009.04.01.04.01.04.01.04.014.038.023.034.028.033.025.034.025.034.024.034.025.036.012.038-.009.041-.02.037-.025.034-.027.033-.025.034-.019.037-.005.04,0,.041.006.04.012.039.018.038.022.036.021.036.015.038.01.04.015.039.019.037.023.035.023.035.007.015.01.022.007.04,0,.041,0,.041.005.041,0,.04-.012.039-.012.04-.007.041,0,.04.022.035.026.034.025.034.022.036.015.038v.042l.008.039.025.033.029.032.026.034.025.035.016.037,0,.04,0,.042-.005.041-.008.04-.012.039-.024.036-.016.037,0,.04.01.041.007.041,0,.039-.023.035-.029.033-.022.036-.017.038-.009.029,0,.01-.009.04-.006.041,0,.04,0,.041v.041l.006.04.012.039.014.039.018.038,0,.005.015.032.008.04,0,.045-.017.032-.044.006-.047-.009-.039-.023-.036-.026-.045,0-.009.034.007.043.053.049.013.039v.041l-.009.04-.012.04-.011.04-.01.04-.012.036v0l-.02.036-.027.034-.026.034-.018.037-.008.04v.041l.005.04.01.04.006.04v.082l0,.041-.005.041-.009.04-.016.038-.023.035-.026.034-.025.034-.025.034-.026.033-.028.032-.03.031-.021.035-.009.04v.041l0,.04.009.04.01.04.009.04.01.04.013.039.022.036.019.037.018.037.02.037.014.04-.006.041-.01.006-.023.013-.044-.013-.045-.014-.044-.01-.026-.033-.04-.026-.041-.008-.021.033-.013.043-.011.04-.009.04-.007.04,0,.041,0,.04,0,.041,0,.041,0,.041v.082l0,.04-.009.04-.01.04-.009.04-.008.04-.007.04-.006.04,0,.041v.082l0,.041,0,.041.006.04.006.041.006.041.008.04.013.038.022.035.019.024.008.01.026.034.025.034.025.034.026.034.026.034.033.028.037.023.039.022.039.021.04.019.04.019.039.021.039.022.038.023.037.023.036.025.035.026.034.027.033.028.031.03.029.031.028.032.028.032.029.032.029.031.026.034.023.035.017.038.01.041v.04l-.015.039-.02.037-.023.035-.016.025-.007.011-.014.038,0,.041.007.04.011.04,0,.042.005.04.037.011.04-.02.042-.016.044-.007.045,0,.045.006.046,0,.044.009.041.017.038.022.034.027.04.018.042.015.043.015.042.016.041.018.037.023.037.024.042.018.036.023.018.038.025.033.04.022.043.011h.047l.042.012.033.029.03.031.025.034.021.037.017.038,0,.008.009.031,0,.041v.041l-.007.04-.01.04,0,.041-.008.04-.01.04-.015.038-.019.037-.019.037-.014.039-.009.04-.006.041,0,.041,0,.041v.041l0,.041.013.039,0,.04,0,.041-.011.039-.02.037-.021.036-.013.039-.009.04,0,.04.005.035v.005l.008.04.007.04,0,.042.015.03v.038l-.005.041-.008.041-.011.04-.013.039-.011.04-.009.043.011.031.04-.019.025-.036.021-.038.03-.026.046-.006h.046l.045.006.045,0h.046l.046,0,.045,0,.045,0,.045,0,.045-.005.045-.008.045,0H671l.046.007.02.032v.041l0,.042v.163l0,.023,0,.017-.015.038-.018.038-.013.039L671,209l-.01.04-.01.04-.011.04-.006.04,0,.041v.041l0,.041,0,.041v.041l0,.041-.008.04-.014.039-.012.039,0,.041-.005.04-.013.039-.016.038-.017.038-.018.038-.02.036-.025.034-.03.031-.035.029-.021.006-.019.006-.043-.009-.043-.014h0l-.045-.011-.034-.005-.013,0-.031.024-.019.039-.016.039-.007.04v.082l-.017.036-.03.032-.023.035-.022.036-.026.035-.01.039,0,.041v.041l0,.041.008.04.01.04.013.039.012.039.007.041.009.04.022.034.031.031.029.032.026.034.017.037.01.04.007.04v.041l-.008.041-.021.035-.033.029-.039.02-.043.014-.042.015-.014.006-.027.011-.039.02-.037.025-.035.026-.036.024-.041.019-.043.014h-.044l-.045-.008-.045-.008-.045-.007-.045-.007h0l-.043,0h-.045l-.041.017-.04.021-.04.02-.035.026-.024.021-.009.008-.024.034-.015.039-.015.039-.014.039-.015.039-.013.039v.04l.005.041v.041l-.009.04-.017.038-.019.037-.024.035-.027.033-.03.03-.038.023-.036.025-.03.03-.024.035-.029.031-.036.025-.027.032-.022.036-.027.033-.035.027-.034.027-.035.027-.021.035-.009.041-.027.032-.028.032-.025.034-.025.034-.026.034-.024.035-.022.036-.011.04v.041l.017.037.03.031.037.024.032.029.02.039-.012.037-.03.034-.039.018-.046.006h-.091l-.046,0-.046,0-.045,0-.046,0h-.045l-.045,0-.045-.007H668.3l-.045.011-.033.026-.026.035-.031.03-.031.03-.028.032-.038.021-.042.017-.047.014-.038.018,0,.037.008.042,0,.041-.011.04-.018.038-.014.038,0,.041v.082l0,.041.008.04.012.04.019.037.023.035.02.037.018.038.007.04v.041l.017.037.023.036.019.037.014.039,0,.041-.02.036,0,0-.036.017-.045.007-.045,0-.047,0-.035.021-.027.034-.028.032-.028.033-.028.034-.041,0-.046-.013-.042-.016-.04-.019-.038-.022-.036-.025-.041-.02-.012-.039.035-.019.036-.016-.019-.039-.039-.023-.034-.028-.023-.037v-.039l.025-.036.046-.017h0l.022-.021-.024-.036-.03-.036-.029-.032-.037-.023-.04-.02-.034-.025,0-.041.006-.04-.026-.032-.036-.027-.038-.023-.039-.022-.039-.021-.036-.025-.038-.021-.043-.013-.041-.019-.03-.03v-.042l.03-.028.037-.025.033-.03.023-.034.008-.04v-.041l-.014-.039-.03-.03-.035-.024-.019-.037-.037-.024-.039-.021-.033-.027-.023-.036-.021-.037-.021-.036-.026-.033-.017-.019-.012-.013-.031-.03-.033-.028-.034-.028-.031-.03-.029-.031-.025-.035-.025-.034-.031-.03-.035-.026-.035-.026-.032-.029-.029-.031-.023-.035-.02-.037-.019-.038-.029-.03-.038-.023-.039-.023-.037-.024-.022-.034-.018-.038-.02-.037-.026-.033-.035-.026-.035-.026-.033-.028-.033-.029-.029-.031-.024-.035-.022-.036-.021-.036-.019-.039-.019-.038-.034-.022-.046-.009-.039-.019-.323-.371.066-.1.191-.135.027-.047.049-.085.041-.126.115-.044.062,0,.049,0,0-.2.018-.3-.117-.1-.146-.134-.109-.237-.013-.027-.14-.156-.156-.071-.008,0-.145-.056.047-.169.056-.179-.027-.132-.1-.087.008-.121.087-.139.09-.034.088-.033.229-.068.033-.087.117-.313.018-.077.042-.181.134-.177.011-.015.09-.234,0-.058-.008-.144-.017-.033-.1-.195-.026-.05-.109-.108-.161-.159-.288-.183-.384-.153-.021-.011-.338-.174-.041-.025-.15-.092-.129-.079-.376-.265-.291-.3-.048-.049-.254-.237-.038-.035-.165-.119-.157-.113-.326-.169-.326-.179-.028-.016-.285-.167-.089-.039-.093-.04-.13-.114-.314-.016-.173-.009-.486-.007-.248,0-.1-.01-.095-.01-.388-.041-.1-.077-.053-.041-.141-.2-.056-.159.069-.184.051-.137.011-.25.007-.153.006-.529-.043-.215.066-.223.005-.018.05-.129.028-.071,0-.112-.023-.048-.049-.1-.036-.193-.1-.153.023-.092.037-.145.088-.173.116-.109.065-.029.077-.034-.08-.309-.033-.126-.056-.341.208-.1.209-.025.28-.041.067-.01.2-.01-.11-.119-.055-.059-.053-.246.1-.226.156-.293.044-.23.006-.029-.046-.312,0-.05-.02-.295-.028-.367v-.279l.157-.124.058-.046.262-.131.019-.052.039-.109-.027-.224-.122-.2.01-.165.024-.194.047.027.2.112.2.075.161.015.036,0,.185.038.082.082.153-.067.512.214.487.2.067.026.554.217.439.172.267.1.3.106.7.251.307.11.567.2.028.01.966.378.215.084.346.133,1,.382.076.048" transform="translate(-659.558 -195.394)" fill-rule="evenodd"/>
    </g>
    <g id="g70" transform="translate(10.128 10.795)">
      <path id="path72" d="M1197.058,577.262l-.017.031-.019.037-.018.038-.018.037-.021.036-.022.036-.019.037-.011.04-.006.04,0,.041,0,.041,0,.041,0,.041,0,.041v.041l-.006.04-.023.036,0,.039.007.041,0,.041-.006.04-.008.04-.01.04-.008.04,0,.041,0,.041,0,.04.016.038.019.037.013.039,0,.041v.082l0,.042,0,.018,0,.019-.039.021-.042.017-.041.017-.039.022-.036.025-.029.032-.012.039,0,.042-.029.024-.027.034-.02.036.009.039.017.038.018.038,0,.04-.018.037-.03.031-.028.032-.022.036-.018.038-.013.039v.041l0,.041.005.04.012.04.024.033.038.024.037.025.032.028.026.034.027.033.014.038.008.04.02.037.021.037.013.031,0,.007.011.04.007.04,0,.041,0,.041,0,.041,0,.04-.011.039-.013.039-.006.029,0,.011-.008.04-.006.04-.006.04,0,.041,0,.041.007.041.01.04.019.036.031.031.031.03.028.031.021.036.018.038.015.039.016.038.028.032.033.029.026.032.011.04v.041l-.012.04-.014.039-.005.04,0,.041.007.041.007.04.011.04.015.038.017.038.017.038.017.038.014.039.006.04v.245l-.006.04-.016.038-.021.037-.029.032-.014.038-.011.04-.008.04v.01l0,.031.01.04.008.04.008.04.006.04,0,.041,0,.041-.007.04-.008.04-.006.04,0,.041,0,.041,0,.04.028.032.016.037.007.041.007.04.007.04.007.04,0,.041v.057l-.12-.082-.037-.024-.038-.023-.045,0-.045.006-.043.013-.044.012-.044.008-.045.008-.035.025-.034.027-.043.014-.042.017-.044.009-.046,0-.039-.019-.035-.027-.035-.026-.038-.023h-.044l-.023,0-.022,0h-.045l-.046,0-.045,0-.038-.021-.037-.024-.038-.023-.038-.022-.041-.018-.044-.008h-.045l-.045,0-.045,0-.044-.007-.04-.02-.037-.024-.036-.024-.043-.014-.045,0-.044-.008-.043-.012-.045,0-.044.012-.043-.01-.014-.005-.029-.011-.04-.019-.035-.026-.034-.027-.034-.027-.033-.028-.032-.029-.032-.029-.03-.031-.026-.034-.02-.036,0-.041,0-.041.012-.04.009-.04.006-.04.011-.039.015-.039.015-.038.014-.039.014-.039.016-.038.016-.035-.831-.166-1.085-.217-.01.029-.011.04,0,.04.006.04.009.04.016.038.017.038.012.039.005.041,0,.041-.011.04-.008.04,0,.041.01.039.023.036.024.035.03.032.006.077-.035.024-.044.011h-.045l-.043-.013-.031-.029-.006-.041,0-.041v-.041l-.02-.036-.037-.022-.046.006-.036-.024-.029-.032-.036-.028-.039-.012-.02.007-.024.008-.04.019-.035.026-.028.032-.025.035-.031.028-.044.011-.046.007-.038.019-.023.035-.01.04-.026.031-.041.019-.026.034-.037.022-.042.016-.019.035-.029.038-.029-.015-.028-.037-.023-.036-.021-.036-.028-.031-.031-.03-.03-.031-.021-.036v-.041l0-.04-.023-.035-.027-.033-.027-.033-.006-.039,0-.042-.008-.04-.015-.039-.019-.037-.019-.037-.01-.038v0l-.007-.041-.009-.04-.014-.038-.022-.036-.024-.034-.033-.032-.092.559-.1.956,0,.019-.052-.024-.038-.022-.034-.027-.031-.03-.026-.033-.021-.036-.019-.037-.017-.038-.015-.038-.008-.04-.007-.04-.009-.04-.015-.038-.022-.036-.021-.036-.02-.037-.016-.038-.012-.021-.009-.015-.026-.034-.033-.025-.043-.015-.035-.025-.032-.029-.032-.029-.036-.024-.038-.02-.036-.025-.031-.029-.027-.033-.032-.029-.043-.01-.044-.013-.043-.013-.043-.013-.044-.011-.038-.021-.038-.022-.045-.007-.045,0-.045,0-.045-.006-.045-.008-.044-.01-.043-.012-.045-.005-.042-.013-.038-.022-.032-.029-.042-.017-.042.006-.041.019-.041.018-.034.027-.034.027-.034.027,0,0-.029.023-.042.014-.046,0-.044-.015-.04.012-.035.028-.03.017h-.046l-.044.011-.043.012-.044.012-.045,0-.045,0-.044-.01-.04-.019-.04-.019-.037-.023-.027-.035h-.041l-.037.024-.041.018-.044.006-.046-.005-.042-.015-.037-.024-.039-.02-.046,0-.042-.015-.032-.028-.016-.038-.035-.026-.037-.024-.039-.021-.041-.019-.042-.015-.043-.014-.041-.018-.028-.024-.005,0-.031-.03-.03-.031-.035-.023-.046-.006-.044-.008-.045-.008-.044-.009-.043-.012-.04-.02-.041-.017-.045,0-.042.016-.038.023-.035.026-.034.028-.039.018-.046.005-.04.018-.037.024-.039.022-.037.024-.035.026-.035.027-.034.027-.035.025-.042.016-.044.012-.044.01-.071.015,0-.008-.017-.038-.021-.037-.025-.034-.03-.031-.033-.029-.042-.012h-.047l-.043-.011-.04-.022-.025-.033-.018-.038-.036-.023-.042-.018-.037-.024-.037-.023-.041-.018-.042-.016-.042-.015-.042-.015-.04-.018-.034-.027-.038-.022-.041-.017-.044-.009-.046,0L1186,581.2l-.045,0-.045.007-.042.016-.04.02-.037-.011-.005-.04,0-.042-.011-.04-.007-.04,0-.041.014-.038.007-.011.016-.025.024-.035.02-.037.015-.039v-.04l-.01-.041-.017-.038-.023-.035-.026-.034-.029-.031-.029-.032-.028-.032-.028-.032-.029-.031-.031-.03-.032-.028-.034-.027-.035-.026-.036-.025-.037-.023-.038-.023-.039-.022-.039-.021-.04-.019-.04-.019-.039-.021-.039-.022-.037-.023-.033-.028-.026-.034-.026-.034-.025-.034-.025-.034-.026-.034-.008-.01-.02-.024-.022-.035-.013-.038-.008-.04-.006-.041-.006-.041-.006-.04,0-.041,0-.041v-.082l0-.041.006-.04.006-.04.008-.04.009-.04.01-.04.009-.04,0-.04v-.082l0-.041,0-.041,0-.041,0-.04.005-.041.007-.04.009-.04.011-.039.014-.043.021-.033.041.008.04.026.026.033.044.01.045.014.044.013.023-.013.01-.006.006-.041-.014-.04-.02-.037-.018-.037-.019-.037-.022-.036-.014-.039-.01-.04-.009-.04-.01-.04-.009-.04,0-.04v-.041l.009-.04.021-.035.03-.031.028-.032.026-.033.025-.034.025-.034.026-.034.023-.035.016-.038.009-.04.005-.041,0-.041v-.082l-.005-.04-.01-.04-.005-.04V577.6l.008-.04.018-.037.026-.034.027-.034.019-.036v0l.012-.036.011-.04.011-.04.012-.04.009-.04v-.041l-.013-.039-.053-.049-.007-.043.009-.034.045,0,.036.026.039.023.047.009.044-.006.016-.032,0-.045-.008-.04-.015-.032.088-.022.044-.012.044-.01.045,0,.045.008.046,0,.039.019.039.021.044.009.045.008.045.006h.136l.043-.013.04-.02.044,0,.046,0,.044.011.045.006.045,0,.044-.011.042-.015.045,0h.046l.045,0,.044.011.043.013.043.014.041.017.033.028.028.032.029.032.028.032.03.031.033.028.014.01.021.015.038.023.038.022.038.022.04.019.033.028.03.031.028.032.024.035.026.033.03.031.032.028.043.011h.046l.039-.017.036-.026.038-.024.039-.021.043-.009.046,0,.046,0,.045-.006.045-.007.045-.006h.045l.045,0,.045-.007.044-.01.041-.016.038-.022.041-.018.04-.02.038-.022.04-.019.043-.014.035-.025.036-.026.034-.013.007,0,.045-.007h.045l.045,0h.045l.03,0h.016l.045.007.044.012.043.014.042.015.042.015.044.008.045,0,.045,0h.045l.045.005.044.01.041.017.04.02.04.019.04.02.044.007h.045l.045,0,.041.016.03.031.034.028.043.01.046-.007.029-.031.039-.023.043-.019.029-.022-.021-.037.018-.038.021-.036.012-.039.009-.04,0-.011,0-.029.018-.037.032-.029.038-.023.031-.031.042-.007.044-.009.032-.028.013-.04.013-.039.024-.035.04-.017.045.007.043.013.044,0,.045-.007h.047l.038.016.021.038.01.039,0,.016-.006.024-.022.035-.028.033-.03.03-.033.028-.035.026-.036.024-.037.024-.035.026-.031.03-.023.035-.006.041.009.039.013.04-.029.029-.038.025-.028.032-.021.036-.006.04.016.036.04.02.046.017.007.028-.037.027-.041.018-.03.031-.024.035-.018.038-.025.035-.018.036,0,.041.013.039.019.037.038.023.036.025.034.027.036.024.032.029.022.035.013.039,0,.041.006.04.008.04.006.04.017.038.01.04.01.04.021.036.026.034.037.024h.044l.042-.017.041-.018.041-.018.034-.027.029-.032.025-.034.019-.037.012-.04.014-.039.014-.039.007-.04.01-.039.019-.039.03-.026.046.007.037.024.041.019.044.009.04.019.026.033.035.026.038.023.041.018.035.026.035.026.029.032.035.025.04.018.039.021.039.021.043.012.042.014.028.033.029.032.033.029.03.03.023.029,0,0,.029.031.033.028.031.029.035.025.041.017.045.01.04.018.034.027.03.03.028.032.033.028.039.021.04.019.038.022.041.018.04.02.041.017.043.013.044.006.046-.005.043-.011.042-.015.045,0h.046l.045,0,.045.007.044.011.044.01.045.009.044,0,.045-.01.044-.012.042-.015.042-.016.04-.019.039-.021.04-.017h0l.039-.02.031-.03.029-.031.031-.03.035-.026.039-.021.044-.008.045,0,.045.008.045,0,.044.011.045,0,.044-.005.042-.017.043-.015.043-.011.04.016.044.009.046,0,.039-.018.035-.027.039-.021.044-.013.038-.021.031-.03.035-.026.039-.021.04-.018.044-.01.045-.007.045,0h.046l.045.006.024.009.018.007.043.014.044.012.043.013.042.015.04.02.037.024.039.02.044.012.045.006.045-.006.044-.009.045-.008.044-.009.041-.017.037-.024.04-.019.041-.017.037-.023.04-.02.043-.012h.045l.045.007.044.011.039-.01.02-.038.01-.039-.04-.023-.038-.022-.022-.035,0-.041.01-.04.01-.04-.01-.038-.016-.038-.017-.038-.018-.037v-.041l0,0,.029-.027.027-.033.01-.04,0-.041-.009-.04,0-.041.014-.038.029-.031.029-.031.011-.039-.026-.034-.017-.038,0-.039.034-.026.044-.012.035-.025.024-.035.005-.039-.017-.039v-.041l.009-.018.01-.019.046,0,.04,0-.011-.043.031-.039,1.169.043" transform="translate(-1184.872 -576.758)" fill-rule="evenodd"/>
    </g>
    <g id="g78" transform="translate(5.464 15.171)">
      <path id="path80" d="M1575.71,849.318l-.039.1,0,0-.015.039-.015.038-.015.038-.015.039-.015.038-.015.038-.016.038-.015.038-.016.038-.015.038-.016.038-.017.038-.018.038-.018.037-.018.037-.017.038-.017.038-.015.038-.013.039-.012.039-.011.04-.01.04-.01.04-.009.04-.01.04-.01.04-.01.04-.371-.1-.315-.085-.859-.18-.473-.113-.051-.012-.028.025-.012.01-.031.03-.023.035-.016.038-.013.039-.008.04.015.038.04,0,.039-.022.044,0-.213.3,0,.006-.475-.084-.523-.152-.039-.034-.032-.031-.012-.037,0-.041,0-.041.006-.04.009-.04.011-.039.008-.04.008-.04.011-.04V849.8l0-.041,0-.073,0-.019.1-.956.091-.559.033.032.025.034.022.036.014.038.009.04.007.041v0l.01.038.019.037.019.037.015.039.008.04,0,.042.006.039.027.033.027.033.023.035,0,.04,0,.041.021.036.03.031.031.03.028.031.021.036.023.036.028.037.029.015.029-.038.018-.035.042-.016.038-.022.026-.034.041-.019.026-.031.01-.04.023-.035.038-.019.046-.007.044-.011.031-.028.024-.035.028-.032.035-.026.04-.019.024-.008.02-.007.04.012.036.028.029.032.036.024.046-.005.037.022.02.036v.041l0,.041.006.041.031.029.043.013h.045l.044-.011.035-.024-.006-.077-.03-.032-.024-.035-.023-.036-.01-.039,0-.041.007-.04.011-.04,0-.041-.005-.041-.012-.039-.017-.038-.016-.038-.009-.04-.006-.04,0-.04.012-.04.01-.029,1.085.217.831.166-.016.035-.016.038-.014.039-.014.039-.015.038-.015.039-.011.039-.006.04-.009.04-.012.04,0,.041,0,.041.02.036.026.034.03.031.031.029.032.029.033.028.034.027.034.027.035.026.04.019.029.01" transform="translate(-1560.529 -848.151)" fill-rule="evenodd"/>
      <path id="path82" d="M1301.295,852.984l0,.073,0,.041v.041l-.011.04-.008.04-.008.04-.011.039-.009.04-.006.04,0,.041,0,.041.012.037.032.031.038.034.523.152.475.084,0-.006.213-.3-.044,0-.039.022-.04,0-.015-.038.008-.04.013-.039.016-.038.023-.035.031-.03.012-.01.028-.025.051.012.473.113.859.18.315.085.371.1.044.017,0,.035-.005.042-.007.04-.015.038-.011.04,0,.041.006.04.009.04v.041l.009.078.592.14.257.063.019.037.019.037.012.038,0,.041,0,.041,0,.041,0,.041,0,.04.014.039.019.037.026.033.032.03.031.03.031.03.029.031.032.029.033.028.028.032.023.035.027.054,0,.014-.01.04-.008.04-.005.04.007.041v.04l-.012.04-.017.038-.027.033-.012.039-.009.04-.005.041,0,.04,0,.041,0,.041,0,.041,0,.041,0,.041v.04l-.009.04.007.041.007.04-.014.023-.006.01-.038.025-.039.022-.038.024-.033.029-.009.039,0,.042-.007.04-.008.04-.011.04-.013.04-.019.036-.036.025-.034.026-.018.037-.016.039-.018.037-.02.037-.021.036-.024.035-.022.035-.018.037-.024.034-.027.033-.025.034-.022.036-.018.037-.019.037-.013.025-.006.012-.016.038-.015.039-.013.039-.006.041,0,.041-.03.027-.036.025-.011.04,0,.043,0,.04-.03.03-.039.013,0,0-.022-.034-.016-.038-.023-.035-.017-.038-.005-.031,0-.01,0-.041.014-.039.02-.037.022-.036.013-.039V857l-.011-.04,0-.041-.012-.039-.015-.039,0-.04,0-.04v-.042l.008-.038.035-.028.006-.008.021-.025.016-.038v-.041l-.007-.04-.009-.04-.008-.04-.007-.04-.021-.035-.031-.03-.04-.021-.022-.036,0-.04-.007-.04-.017-.038-.019-.037-.026-.033,0,0-.027-.028-.031-.03-.034-.027-.032-.029-.028-.032-.03-.031-.035-.026-.037-.024-.042-.017-.043-.015-.034-.025-.017-.038-.007-.041,0-.041-.008-.04-.02-.037-.041-.016-.032-.024-.011-.04-.008-.04v-.045h-.034l-.031.03-.015.04-.007.04v.041l-.007.04-.011.04-.011.039-.01.04-.006.04v.164l-.009.04-.014.039-.016.038-.016.038-.015.039-.01.04-.008.04-.015.039-.022.036-.045,0-.048-.008-.008.033,0,.041,0,.005-.009.035-.009.04v.04l-.038.024h-.046l-.041.013-.022.035-.018.037-.02.038-.006.039.011.04.022.035.031.03.034.027.042.026v.029l-.011.009-.025.022-.04.02-.043.015-.041.017-.042.017-.036.023-.03.031-.021.036-.012.039-.01.04-.009.04-.007.04-.006.04-.008.04-.018.037-.019.038-.03.03-.053.036-.007-.009-.033-.027h0l-.04-.018-.041-.018-.043-.013-.043-.014-.026-.033-.036-.025-.041-.018L1303,857.2l-.011-.04v-.041l-.007-.041-.022-.034-.029-.031-.024-.034-.029-.032-.031-.03-.035-.028-.024-.032-.005-.04,0-.042.008-.04V856.7l-.011-.039-.027-.033-.033-.028-.031-.03-.031-.03-.031-.03-.032-.029-.008-.04-.008-.04-.017-.038-.027-.032-.03-.03-.024-.035-.033-.027-.045-.005h-.091l-.045,0-.044-.01-.04-.018-.032-.029-.031-.031-.033-.028-.04-.023-.042,0-.042.019-.042.021h-.04l-.035-.028-.025-.034-.012-.039-.019-.037-.026-.034-.034-.025-.043-.016-.046-.007-.038-.02-.033-.028-.031-.03-.031-.03-.031-.03-.031-.03-.032-.029-.035-.026-.031-.029-.021-.037-.013-.039-.017-.039-.026-.032-.042.015-.04.019h-.045l-.024-.034h0l-.021-.036-.013-.039-.016-.038-.026-.034-.026-.034-.024-.035-.018-.037-.005-.04.008-.04,0-.041-.008-.039-.01-.04-.012-.038-.027-.033-.026-.034-.025-.034-.026-.033-.042-.016-.04-.02-.023-.035-.016-.038-.022-.036-.027-.034-.032-.029-.04-.013-.047,0-.031-.027-.027-.033-.037-.022-.044-.013-.045-.009-.029-.03,0-.041-.026-.032-.029-.032-.031-.03-.035-.027-.018-.012-.018-.012-.037-.024-.038-.022-.04-.02-.039-.021-.036-.025-.033-.028-.029-.032-.03-.03-.04-.016-.045-.01-.043-.015-.035-.024-.026-.034-.026-.033-.027-.033-.031-.029-.034-.028-.027-.033-.021-.036-.014-.039-.028-.033-.043,0-.047,0h-.046l-.045,0-.045,0-.045.008-.045.007-.045.005-.045,0-.045,0-.049.005-.046,0-.032-.016-.009-.044-.041,0-.045,0h-.14l-.044-.01-.043-.012-.045-.01-.045-.008-.044,0-.044.013-.045,0-.046,0-.045-.005-.044-.01-.043-.013-.042-.015-.042-.015-.043-.013-.043-.014-.041-.023h-.037l-.032.033-.036.018-.045-.012-.045-.006-.042-.013-.037-.025-.038-.022-.045-.007-.045,0-.045.008-.045,0-.046,0-.086-.007,0-.023v-.163l0-.042v-.041l-.02-.032-.046-.007h-.046l-.045,0-.045.008-.045.005-.045,0-.045,0-.046,0-.046,0h-.046l-.045,0-.045-.006h-.046l-.046.006-.03.026-.021.038-.025.036-.04.019-.011-.031.009-.043.011-.04.012-.039.011-.04.008-.041.005-.041v-.038l-.015-.03,0-.042-.007-.04-.008-.04v-.005l-.005-.035.005-.04.009-.04.013-.039.021-.036.02-.037.011-.039,0-.041,0-.04-.013-.039,0-.041V852.5l0-.041,0-.041.006-.041.009-.04.013-.039.019-.037.019-.037.015-.038.01-.04.008-.04,0-.041.01-.04.007-.04v-.041l0-.041-.009-.031.071-.015.044-.01.044-.012.042-.016.035-.025.034-.027.035-.027.035-.026.037-.024.039-.022.037-.024.04-.018.046-.005.039-.018.034-.028.035-.026.037-.023.042-.016.045,0,.041.017.04.02.043.012.044.009.045.008.044.008.046.006.035.023.03.031.031.03.005,0,.028.024.041.018.043.014.042.015.041.019.039.021.037.024.035.026.016.038.032.028.042.015.046,0,.039.02.037.024.042.015.046.005.044-.006.041-.018.037-.024h.041l.027.035.037.023.04.019.04.019.044.01.045,0,.045,0,.044-.012.043-.012.044-.011h.046l.03-.017.035-.028.04-.012.044.015.046,0,.042-.014.029-.023,0,0,.034-.027.034-.027.034-.027.041-.017.041-.019.042-.006.042.017.031.029.039.022.042.013.045.005.043.012.044.01.045.008.045.006.045,0,.045,0,.045.007.038.022.038.021.044.011.043.013.043.013.044.013.043.01.032.029.027.033.031.029.036.025.038.02.036.024.032.029.032.029.035.025.043.015.033.025.026.034.009.015.012.021.016.038.02.037.021.036.022.036.015.038.009.04.007.04.008.04.015.038.017.038.019.037.021.036.026.033.031.03.034.027.038.022.052.024" transform="translate(-1289.833 -851.449)" fill-rule="evenodd"/>
      <path id="path84" d="M1805.928,874.1l.06,0,.044-.007.039-.02.036-.026.033-.028.033-.029.03-.031.035-.025.078-.036.912.192-.093.447.251.044,1.668.293.488.086.784.137.184-.792,0-.019,1.223.185.015,0-.138.574.7.111.648.1.34.054-.077.4.6.114-.031.263,0,.034,1.344.231,0,.018-.21,1.069-.064.231-.049.179-.125.452-.088.808-.007.063-.208.652-.206.648-1.1-.167-1.577-.24.015-.092,0-.015-1-.153-.665-.1-.486-.075-.839-.13-.108-.017-.045.14-.053.165-1.207-.255-.077-.016-.114-.024-.027.1-.024.088-.95-.214.008-.068-.393-.085-.019-.047-.084-.017-1.208-.246.013-.025.019-.037.018-.037.022-.036.025-.034.027-.033.025-.034.018-.038.022-.035.024-.035.021-.036.019-.037.018-.037.016-.039.018-.037.034-.026.036-.025.019-.036.013-.04.011-.04.008-.04.007-.04,0-.042.009-.039.033-.029.038-.024.039-.022.038-.025.006-.01.014-.023-.007-.04-.007-.041.009-.04v-.04l0-.041,0-.041,0-.041,0-.041,0-.041,0-.04.005-.041.009-.04.012-.039.027-.033.017-.038.012-.04v-.04l-.007-.041.005-.04.008-.04.01-.04,0-.014.007-.026.013-.039.014-.039.012-.04.011-.04.014-.039.015-.038.015-.039.014-.039.014-.039.014-.039.015-.038.014-.039.019-.037.025-.034.027-.033.027-.033.027-.033.028-.032.03-.03.027-.033.023-.035.019-.037.017-.038.017-.038.018-.038.032-.028.034-.028.031-.03.02-.036.009-.019.009-.019.026-.033.03-.031.026-.033.021-.037.01-.039,0-.04.014-.039.021-.036.029-.031.032-.03.031-.03.007-.008.022-.024.028-.032.027-.033.013-.039.023-.034.031-.031.03-.031.03-.031.024-.035.01-.039,0-.041v-.082l0-.041,0-.041,0-.041v-.041l-.009-.04,0-.041v-.082l0-.041-.007-.04-.007-.04-.007-.04-.007-.041-.016-.037-.028-.032,0-.04,0-.041,0-.041.005-.04.008-.04.007-.04,0-.041,0-.041-.006-.04-.008-.04-.008-.04-.01-.04,0-.031" transform="translate(-1788.908 -873.463)" fill-rule="evenodd"/>
      <path id="path86" d="M1773.826,917.783v.024l0,.041.009.04v.041l0,.041,0,.041v.122l0,.041-.01.04-.024.035-.03.031-.03.031-.031.031-.023.034-.012.039-.027.033-.028.032-.022.024-.007.008-.03.03-.032.03-.029.031-.021.036-.014.039,0,.04-.01.039-.021.037-.026.033-.03.031-.026.033-.009.019-.009.019-.02.036-.031.03-.034.028-.032.028-.018.038-.017.038-.017.038-.019.037-.023.035-.027.033-.03.031-.028.032-.027.033-.027.033-.027.033-.025.034-.019.037-.015.039-.015.038-.014.039-.014.039-.014.039-.015.039-.015.038-.014.039-.011.04-.011.04-.014.039-.013.039-.007.026-.027-.054-.024-.035-.028-.032-.033-.028-.032-.029-.029-.031-.031-.03-.031-.03-.031-.03-.026-.033-.019-.037-.014-.039,0-.04,0-.041,0-.041,0-.041,0-.041-.012-.038-.019-.037-.019-.037-.257-.063-.592-.14-.009-.078v-.041l-.009-.04-.006-.04,0-.041.011-.04.016-.038.007-.04.005-.042,0-.035-.044-.017.01-.04.01-.04.01-.04.009-.04.01-.04.01-.04.011-.04.012-.039.013-.039.015-.038.017-.038.017-.038.018-.037.018-.037.018-.038.017-.038.016-.038.015-.038.016-.038.015-.038.016-.038.015-.038.015-.038.015-.039.015-.038.015-.038.015-.039,0,0,.039-.1.014.005.043.01.044-.012.045,0,.043.012.044.008h.045l.043.014.036.024.037.024.04.02.044.007.045,0,.045,0h.045l.044.008.041.018.038.022.038.023.037.024.038.021.045,0,.046,0h.045l.022,0,.023,0h.044l.038.023.035.026.035.027.039.019.046,0,.044-.009.042-.017.043-.014.034-.027.035-.025.045-.008.044-.008.044-.012.043-.013.045-.006.045,0,.038.023.036.024.12.082" transform="translate(-1756.716 -916.298)" fill-rule="evenodd"/>
      <path id="path88" d="M1322.811,975.837l.086.007.046,0,.045,0,.045-.008.045,0,.045.007.038.022.037.025.042.013.046.006.045.012.036-.018.032-.033h.037l.041.023.043.014.043.013.042.015.042.015.043.013.044.01.045.005.046,0,.045,0,.044-.013.044,0,.045.008.045.01.044.012.044.01h.14l.046,0,.041,0,.009.044.032.016.046,0,.049-.005.045,0,.045,0,.045-.005.045-.007.045-.008.045,0,.045,0h.046l.047,0,.043,0,.028.033.014.039.021.036.027.033.034.028.032.029.027.033.026.033.026.034.035.024.043.015.045.01.04.016.03.03.029.032.033.028.036.025.039.021.04.02.038.022.037.024.018.012.018.012.035.027.031.03.029.032.026.032,0,.041.029.03.045.009.044.013.038.022.027.033.031.027.047,0,.04.013.032.029.027.034.022.036.016.038.023.035.04.02.042.016.026.033.025.034.026.034.027.033.012.038.01.04.008.039,0,.041-.008.04.006.04.018.037.024.035.026.034.026.034.016.038.013.039.021.036h0l.024.034h.045l.04-.019.042-.015.026.032.017.039.013.039.021.037.031.029.035.026.032.029.031.03.031.03.031.03.031.03.033.028.037.02.046.007.043.016.034.025.026.034.019.037.012.039.025.034.035.028h.04l.042-.021.042-.019.042,0,.04.023.033.028.031.031.032.029.04.018.044.01.045,0h.091l.045.005.033.027.024.035.03.03.027.032.017.038.008.04.008.04.032.029.031.03.031.03.031.03.033.028.027.033.012.039v.041l-.008.04,0,.042.005.04.024.032.035.028.031.03.029.031.024.034.029.031.022.034.006.041v.041l.011.04.027.031.041.018.036.025.026.033.043.014.043.013.041.018.04.018h0l.033.027.007.009.018.025.023.035.028.032.031.029.035.027.022.033,0,.042v.041l0,.041.024.034.031.028.011.04v.04l-.007.041,0,.04-.019.037-.011.04-.027.031-.031.03-.027.033-.008.039-.013.038-.026.034-.027.033-.028.032-.029.031-.012.039-.027.031-.036.026-.028.031-.008.041,0,.041,0,.041-.008.04-.013.039-.023.035-.031.03-.028.021-.007.005-.035.027-.021.034h0l0,.041.01.039.023.036.023.035.026.033.026.034.019.036.009.04,0,.027,0,.013,0,.04-.042.013-.045-.012-.042-.015-.041-.018-.041-.017-.042-.016-.044-.013-.049-.013-.031.013-.009.043-.02.037-.045.009-.041-.021-.013-.035v-.04l-.039-.025-.007-.038,0-.042-.019-.037-.037-.021-.046-.005-.045-.008-.043-.013-.041-.017-.039-.021-.04-.025-.035-.012-.024.03-.022.038-.019.041-.016.039-.009.04-.008.04-.012.04-.016.038-.028.033-.011,0-.029-.011-.044-.021h-.037l-.023.034-.018.041-.013.039-.008.041-.008.04-.014.045-.024.026-.037-.015-.041-.026-.043-.019-.044-.008-.046,0h-.094l-.045.009-.013.035.012.041.028.034.008.039,0,.039.028.031.033.03.028.032.023.035.015.039,0,.008-.073.009-.053.007-.045,0-.046,0-.043-.014-.04-.019-.035-.026-.035-.025-.03-.031-.031-.031-.041.007-.043.015-.037-.021-.041-.017-.032-.029-.034-.027-.03-.031-.028-.032-.023-.035-.026-.032-.045-.01-.046-.006-.028-.029-.025-.034-.034-.027-.034-.027-.033-.029-.037-.024-.026-.033-.011-.039,0-.041.018-.037.012-.04-.011-.039-.037-.023-.041-.018-.038-.022-.032-.029-.013-.015-.015-.018-.026-.034-.027-.033-.031-.029-.045-.006-.04-.018-.032-.029-.02-.036-.006-.041,0-.041,0-.041,0-.04.017-.038.024-.035.03-.031.034-.028.036-.025.046-.011.011-.034,0-.042,0-.041v-.082l.01-.04.035-.027.018-.024-.032-.033-.032-.029-.017-.038-.011-.039-.012-.039-.015-.039-.013-.039-.02-.036-.026-.034-.027-.033-.028-.033-.013-.038,0-.041v-.041l0-.039-.035-.027-.043-.014-.028-.032-.017-.038-.015-.023-.009-.012-.023-.035-.023-.035-.024-.035-.023-.035-.023-.035-.026-.033-.028-.032-.027-.033-.029-.032-.033-.028-.042-.017-.044-.011-.044-.008-.045-.01-.038-.02-.031-.031-.032-.029-.039-.02-.04-.02-.04-.02-.039-.021-.037-.025-.024-.033v-.042l0-.04-.029-.032-.043,0-.041-.017-.039-.022-.034-.027-.034-.027-.033-.028-.03-.03-.028-.032-.028-.032-.024-.035-.018-.038v-.081l-.02-.037-.03-.031-.036-.025-.039-.022-.04-.02-.039-.021-.032-.029-.025-.034-.029-.031-.041-.019h-.046l-.038-.021-.035-.027-.033-.029-.015-.037,0-.041,0-.041,0-.041-.006-.02-.005-.016-.04.021-.039-.02-.03-.03-.009-.039.007-.04-.01-.04-.015-.039,0-.041.01-.039.031-.03.021-.036.01-.04,0-.04,0-.041,0-.04v0l-.016-.035-.039-.015-.031-.027.008-.043h0l-.023-.025-.046,0-.042.018-.04.02-.039.021-.041.018-.042.016-.042.016-.041.018-.039.021-.039.022-.04.02-.042.016-.047.014-.046.008-.04,0-.024-.033-.021-.041-.026-.033-.026-.033-.026-.034-.026-.034-.026-.033-.026-.034-.025-.034-.026-.034-.028-.033-.029-.031-.03-.031-.031-.03-.017-.015-.015-.013-.035-.026-.037-.024-.038-.023-.038-.022-.05-.03.021-.006.035-.029.03-.031.025-.034.02-.036.018-.038.017-.038.016-.038.013-.039.005-.04,0-.041.012-.039.014-.039.008-.04,0-.041v-.041l0-.041,0-.041v-.041l0-.041.006-.04.011-.04.01-.04.01-.04.011-.039.013-.039.018-.038.015-.038,0-.017" transform="translate(-1315.269 -973.681)" fill-rule="evenodd"/>
      <path id="path90" d="M896.342,1038.786l.323.371.039.019.046.009.034.022.019.037.019.039.021.036.022.036.024.035.029.031.033.029.033.028.035.026.035.026.026.033.02.037.018.038.022.034.037.024.038.023.038.023.029.03.019.038.02.037.023.035.029.031.032.029.035.026.035.026.031.03.025.034.025.035.029.031.031.03.033.028.033.028.031.03.012.013.017.019.026.033.021.036.021.037.023.036.033.027.039.021.037.024.019.037.035.024.03.03.014.039v.041l-.008.04-.023.034-.033.03-.037.026-.03.028v.042l.03.03.041.019.043.013.038.021.036.026.039.021.039.022.038.023.036.027.026.032-.006.04,0,.041.035.025.04.02.037.023.029.032.03.036.024.036-.022.021h0l-.046.017-.025.036v.039l.023.036.034.028.039.023.019.039-.036.016-.035.02.012.039.041.02.036.025.038.022.04.019.042.016.046.013.041,0,.028-.034.028-.033.028-.032.027-.034.035-.021.047,0,.045,0,.045-.007.036-.017,0,0,.02-.036,0-.041-.014-.039-.019-.037-.023-.036-.017-.037v-.041l-.007-.04-.018-.038-.02-.036-.023-.035-.019-.037-.012-.04-.008-.04,0-.041v-.082l0-.041.014-.038.018-.038.011-.04,0-.041-.008-.042,0-.037.038-.018.047-.014.042-.017.038-.021.028-.032.031-.031.031-.03.026-.035.033-.026.045-.011h.045l.045.007.045,0h.045l.046,0,.046,0,.045,0,.046,0h.091l.046-.006.039-.018.03-.034.012-.037-.02-.038-.032-.029-.037-.025-.03-.031-.017-.037v-.041l.011-.04.022-.036.024-.035.026-.034.025-.034.025-.034.028-.032.027-.032.009-.041.021-.035.035-.027.034-.027.035-.027.027-.033.022-.036.027-.032.036-.026.029-.031.024-.035.03-.03.036-.025.038-.023.03-.03.027-.033.024-.035.019-.037.017-.038.009-.04v-.041l-.005-.041v-.04l.014-.039.015-.039.014-.039.015-.039.015-.039.024-.034.009-.008.024-.021.035-.026.04-.02.04-.021.041-.017h.045l.042,0h0l.045.007.045.007.045.008.045.008h.045l.043-.014.041-.019.036-.024.035-.026.037-.025.039-.021.027-.011.014-.006.042-.015.043-.014.039-.02.033-.029.021-.035.008-.041v-.041l-.007-.04-.011-.04-.017-.037-.026-.034-.029-.032-.031-.031-.022-.034-.009-.04-.007-.041-.012-.039-.013-.039-.01-.04-.008-.04,0-.041v-.041l0-.041.01-.038.026-.035.022-.036.023-.035.03-.032.017-.036v-.083l.007-.04.016-.039.019-.039.031-.024.013,0,.034.005.045.011h0l.043.014.043.009.019-.006.05.03.038.022.038.023.037.024.035.026.015.013.017.015.031.03.03.031.029.031.028.033.025.034.025.034.026.034.026.033.026.033.026.034.026.033.026.033.021.041.024.033.04,0,.046-.008.047-.014.042-.016.04-.02.039-.022.039-.021.041-.018.042-.016.042-.016.041-.018.039-.021.04-.02.042-.018.046,0,.023.025h0l-.008.043.031.027.039.015.016.035v0l0,.04,0,.041,0,.041-.01.04-.021.036-.031.03-.01.039,0,.041.015.039.01.04-.007.04.009.039.03.031.039.02.04-.021.005.016.006.02,0,.041,0,.041,0,.041.014.038.033.029.035.027.038.021h.046l.041.019.029.031.025.034.032.029.039.021.04.02.039.022.036.025.03.031.02.037v.081l.018.038.024.035.028.032.028.032.03.03.033.028.034.027.034.027.039.022.041.017.043,0,.029.032,0,.04v.042l.024.033.037.025.039.021.04.02.04.02.039.02.032.029.031.031.038.021.045.01.044.008.044.011.042.017.033.028.029.032.027.033.028.032.026.033.023.035.023.035.024.035.023.035.023.035.009.012.015.023.017.038.028.032.043.014.035.027,0,.039v.041l0,.041.013.038.028.033.027.033.026.034.02.036.013.039.015.039.012.039.011.039.017.038.032.029.032.033-.018.024-.035.027-.01.04v.082l0,.041,0,.042-.011.034-.046.011-.036.025-.034.028-.03.031-.024.035-.017.038,0,.04,0,.041,0,.041.006.041.02.036.032.029.04.018.045.006.031.029.027.033.026.034.015.017.013.015.032.029.038.022.041.018.037.023.011.039-.012.04-.018.037,0,.041.011.039.026.033.037.024.033.029.034.027.034.027.025.034.028.029.046.006.045.01.026.032.023.035.028.032.03.031.034.027.032.029.041.017.037.021.043-.015.041-.007.031.031.03.031.035.025.035.026.04.019.043.014.045,0,.045,0,.053-.007.073-.009.01.032.023.033.039.026.005.037-.009.041-.009.041,0,.041.02.036.032.029.036.026.037.024.038.022.04.019.045.005.044-.01.042-.015h.046l.039.019.037.025.037.023.035.026.036.025.037.023.04.02.038.022.04.018.015.039.016.038.01.04.011.04.016.038.012.039.007.04.024.035.04.019.044.012.043.013.023.017.012.009.031.03-.045.041-.038.021-.037.009-.007,0-.045.01-.045.006-.043-.013-.039-.023-.042-.014-.046-.005h-.046l-.046,0-.045-.006-.028-.03-.041-.019-.04.017-.039.023h-.045l-.046.008-.041-.012-.039-.023-.037-.025-.037-.024-.045,0-.028.031-.021.039-.007.04-.007.04-.019.037-.02.036-.022.036-.017.038-.008.04,0,.041-.01.04-.011.039-.011.04-.008.041-.021.036-.037.024-.045.009h-.012l-.034,0-.041.014-.024.036-.025.034-.027.033-.038.022-.038-.021-.04-.02-.041-.018-.041-.02-.047,0-.045.008-.019.032-.014.04-.031.029-.011.039-.009.041-.016.038-.021.037-.018.037-.008.039,0,.042-.011.037-.035.028-.034.028-.023.035-.014.039-.009.04,0,.041v.081l-.006.04-.007.04-.007.041-.005.041,0,.041-.006.04-.008.027,0,.011-.028.034-.011.039,0,.01.011.028.032.03.034.029-.014.038-.044.007-.039.021-.029.031-.009.04-.008.04-.007.04-.006.04-.005.041-.005.041,0,.041,0,.041-.007.04-.02.036-.03.032-.021.033v.042l-.01.04-.013.04-.013.04-.011.039,0,.029-.11-.012-.045-.007-.044-.009-.045-.009-.043-.013-.043-.014-.044-.01-.045-.008-.045,0h-.046l-.045-.007-.042-.015-.038-.023-.037-.024-.04-.019-.043-.014-.044-.01-.045,0-.045-.007-.042-.017-.042-.016-.044-.01-.043.005h0l-.025,0-.02,0-.036,0h-.056l-.044,0-.038-.023-.04-.02-.042-.017-.007,0-.037-.009-.046,0-.044,0-.038.011-.042-.016-.042-.016-.042-.016-.042-.016-.043-.015-.044-.006-.046,0-.042-.013-.041-.02-.039-.021-.037-.023-.037-.024-.038-.023-.041-.018-.042-.016-.043-.012-.045-.007-.045,0h-.046l-.04-.019-.039-.022-.039-.021-.039-.021-.038-.023-.036-.025-.035-.026-.035-.027-.034-.027-.035-.027-.036-.026-.037-.024-.039-.022-.042-.017-.03-.01-.013,0-.041-.018-.042-.017-.043-.013-.044-.011-.044-.009h-.047l-.043-.011-.041-.02-.023-.033-.022-.036-.029-.032-.032-.028-.037-.024-.04-.02-.042-.014h0l-.039-.011-.042-.015-.04-.021-.04-.02-.042-.016-.045-.008-.044-.012-.042-.016-.04-.019-.039-.022-.039-.022-.042-.015-.046,0-.045.005-.041-.016-.034-.028-.025-.034-.037-.022-.042-.016-.041-.019-.038-.022-.033-.028-.022-.035-.026-.033-.034-.028-.038-.023-.042-.016-.038-.023-.02-.035-.009-.04-.009-.041-.01-.04-.015-.038-.017-.038-.012-.039-.014-.039-.022-.035-.018-.016-.015-.013-.042-.016-.043-.013-.043-.015-.044-.01-.045-.007-.042-.017-.039-.021-.037-.023h-.046l-.042.014-.045.009-.045.006-.045.005-.043.015-.043,0-.043-.016-.04-.02-.042-.01-.045.01-.043.012-.042.017-.039.021-.041.018-.043.005-.036-.026-.039-.02-.043.013-.036.025-.036.025-.038.023-.041.019-.044.007-.041-.016-.034-.028-.038-.024-.041-.017-.044,0h0l-.042.007-.041-.013-.014-.04-.021-.038-.039-.012H898.7l-.046,0-.046-.007-.045,0-.038.021-.04.011-.044-.016-.04-.02-.027-.033-.01-.039.02-.037.021-.037.021-.036.024-.035.029-.031.042-.019.033-.025.012-.041v-.04l-.006-.041,0-.041v-.041l0-.04-.011-.04-.011-.04-.007-.04-.008-.04-.01-.04-.017-.037-.029-.032-.034-.027-.037-.024-.019-.009-.109-.028-.051-.03-.069-.061-.049-.037-.033-.025-.017-.074-.044-.062h-.052l-.048.034-.054.005-.07-.06-.078-.042-.122-.071-.1-.039-.092-.038-.069-.056-.034,0-.025,0-.076.035-.081.038-.067-.015-.093-.071-.045-.021-.158-.026-.052,0h-.02l-.066-.039-.117-.064-.072-.027-.092,0-.048-.062-.068-.073-.081-.063-.083-.034-.079-.011-.126-.021-.146-.021-.1-.043-.079-.073-.1-.1-.929-.75.052-.109.039-.067.077-.133.232-.129.046-.026.032-.017.276-.147.3-.2.214-.1.166-.151.028-.025.005-.1-.073-.12.077-.1.032-.039.215-.258.093-.158.028-.153.024-.035" transform="translate(-894.479 -1034.208)" fill-rule="evenodd"/>
      <path id="path92" d="M1593.23,1085.542l1.208.246.084.017.019.047.393.085-.008.068.95.214.024-.088.027-.1.114.024.077.016,1.207.255.053-.165.045-.14.108.017.839.13.486.075.665.1,1,.153,0,.015-.015.092,1.577.24,1.1.167-.047.148-.36,1.333-.038.138,0,.012-.01.039-.119-.042-.124.093-.1.276-.174.49-.091.256-.052.147-.154.434-.133-.018-.262.76-.051.147-.179.52-.13.379-.454.146-.162.052-.746.24-.137.339-.322-.095-.066-.02-.618-.132-.081.267-.152.5-.01.041-.014.061-.212.886-.21.59-.191.536-.092-.029-.011-.04-.011-.039-.007-.018-.008-.021-.022-.036-.029-.032-.036-.025-.041-.019-.042-.017-.043-.014-.043-.014-.039-.022-.036-.025-.033-.029-.037-.021-.047,0-.044.006-.038.024-.039.021,0,.04v.042l.012.038.027.033-.02.032-.047,0-.045-.009-.044-.01-.042-.016-.037-.023-.034-.028-.041-.017-.045-.009-.044-.011-.033-.026-.026-.034-.025-.034-.023-.035-.023-.035-.029-.032-.026-.033-.023-.035-.022-.036-.03-.03-.031-.03-.027-.033-.021-.036-.013-.039-.011-.04-.007-.041,0-.041-.005-.04-.011-.039-.018-.038-.02-.037-.025-.034-.036-.025-.034-.027-.032-.029-.031-.03-.029-.032-.029-.032-.02-.036-.014-.039-.019-.037-.023-.035-.021-.036v-.041l-.022-.035-.039-.021-.043-.014-.044-.01-.045-.005h-.229l-.045,0-.046-.005-.042-.013-.033-.029-.034-.028-.034-.027-.036-.026-.038-.023-.039-.022-.033-.028-.031-.03-.031-.03-.027-.039-.024-.035-.022-.036-.029-.031-.029-.032-.03-.031-.039-.02-.04-.02-.038-.022-.038-.023-.037-.024-.037-.023-.039-.021-.042-.016-.043-.015-.044-.011-.046,0-.043-.012-.042-.016-.035-.024-.03-.03-.041-.019-.042-.016-.044-.01-.043-.013-.042-.016-.04-.02-.039-.022-.041-.019-.035-.026-.029-.032-.009-.021-.008-.017-.03-.03-.035-.027-.031-.03-.027-.033-.031-.03,0,0-.028-.026-.029-.031-.028-.032-.031-.031-.031-.03-.029-.032-.022-.035-.009-.04v-.041l-.026-.033-.022-.026-.006-.007-.007-.039.017-.038.041-.017.031-.03.015-.038-.006-.041-.009-.04-.015-.038-.02-.037-.015-.039-.016-.038-.024-.034-.03-.031-.028-.033-.027-.033-.034-.027-.041-.018-.043-.015-.042-.015-.042-.017-.045-.008-.046,0-.045-.008-.043-.012-.043-.013-.044-.011-.043-.013-.043-.014-.04-.019-.032-.028-.027-.034-.024-.035-.02-.036-.022-.035-.026-.034-.02-.036-.02-.037,0-.008-.016-.028-.008-.007-.025-.021-.037-.023-.042-.017-.043-.014-.043-.013-.041-.018-.039-.022-.033-.027-.007-.01-.017-.025-.039-.017-.045-.011-.045-.011-.04-.019-.032-.029-.033-.028-.038-.024-.026-.03v-.124l0-.041,0-.041-.008-.04-.015-.038-.022-.036-.026-.034-.027-.033-.019-.037-.007-.04,0-.041,0-.041,0-.041v-.041l.008-.04.013-.039.017-.038.019-.037.015-.039.008-.041-.026-.03-.038-.025-.038-.023-.041-.018-.041-.018-.039-.021-.031-.012-.011,0-.042-.015-.044-.012-.044-.012-.04-.02-.04-.02-.038-.022-.038-.023-.036-.025-.026-.033-.02-.037-.027-.033-.019-.037-.019-.037-.028-.032-.031-.03-.031-.03-.028-.032-.026-.034-.02-.037-.013-.039-.007-.04-.006-.04-.018-.037-.026-.034-.032-.028-.031-.029-.029-.031-.03-.031-.031-.03-.012-.009-.023-.017-.043-.013-.044-.012-.04-.019-.024-.035-.007-.04-.012-.039-.016-.038-.011-.04-.01-.04-.016-.038-.015-.039-.04-.018-.038-.022-.04-.02-.037-.023-.036-.025-.035-.026-.037-.023-.037-.025-.039-.019h-.046l-.042.015-.044.01-.045-.005-.04-.019-.038-.022-.037-.024-.036-.026-.032-.029-.02-.036,0-.041.009-.041.009-.041-.005-.037-.039-.026-.023-.033-.01-.032,0-.008-.015-.039-.023-.035-.028-.032-.033-.03-.028-.031,0-.039-.008-.038-.028-.034-.012-.041.013-.035.044-.009h.094l.046,0,.044.008.043.019.041.026.037.015.024-.026.014-.045.008-.04.008-.041.013-.039.018-.041.023-.034h.037l.044.021.029.011.011,0,.028-.033.016-.038.012-.04.008-.04.009-.04.016-.039.019-.041.022-.038.024-.03.035.012.04.025.039.021.041.017.044.012.045.008.046.005.037.021.019.037,0,.042.007.038.039.025v.04l.013.035.041.021.045-.009.019-.037.009-.043.031-.013.049.013.044.013.042.016.041.017.041.017.042.015.045.012.042-.013,0-.04,0-.013,0-.027-.009-.04-.019-.036-.026-.034-.026-.033-.023-.035-.023-.036-.01-.039,0-.041h0l.021-.034.035-.027.007-.005.028-.021.031-.03.023-.035.013-.039.008-.04,0-.041,0-.041.008-.041.028-.031.036-.026.027-.031.012-.039.029-.031.028-.032.027-.033.026-.034.013-.037.008-.039.027-.033.031-.03.027-.031.011-.04.019-.037,0-.04.007-.041v-.04l-.011-.04-.031-.028-.024-.034,0-.041v-.041l0-.042-.022-.033-.035-.027-.032-.029-.028-.032-.023-.035-.018-.025.053-.036.03-.03.019-.038.018-.037.008-.04.006-.04.007-.04.009-.04.01-.04.012-.04.021-.036.03-.031.036-.023.042-.017.041-.017.043-.015.04-.02.025-.022.011-.009v-.029l-.042-.026-.034-.027-.031-.03-.022-.035-.011-.04.006-.039.02-.038.018-.037.022-.035.041-.013h.046l.038-.024v-.04l.009-.04.009-.034,0-.005,0-.041.008-.033.048.008.045,0,.022-.036.015-.039.008-.04.01-.04.015-.039.016-.038.016-.038.014-.039.009-.04v-.164l.006-.04.01-.04.011-.04.011-.04.007-.04v-.041l.007-.041.015-.04.031-.03h.034v.045l.008.04.011.04.032.024.041.016.02.037.008.04,0,.041.007.041.017.038.034.025.042.015.042.016.037.024.035.026.03.031.028.032.032.029.034.027.031.03.027.028,0,0,.026.033.019.037.017.038.007.04,0,.041.022.036.04.021.031.03.021.035.007.04.008.04.009.04.007.04v.041l-.016.038-.02.025-.007.008-.035.028-.008.038v.042l0,.04,0,.041.014.039.012.039,0,.041.011.04v.04l-.013.039-.022.036-.02.037-.014.039,0,.041,0,.01.005.031.017.038.023.035.016.038.022.034,0,0,.039-.014.03-.03,0-.04,0-.043.011-.04.036-.025.03-.027,0-.041.006-.041.013-.039.015-.039.016-.038.006-.012" transform="translate(-1577.919 -1080.007)" fill-rule="evenodd"/>
    </g>
    <g id="g98" transform="translate(1.841 21.762)">
      <path id="path100" d="M682.81,1242.921l.929.75.1.1.079.073.1.043.146.021.126.021.079.011.083.034.081.063.068.073.048.062.092,0,.072.027.117.064.066.039h.02l.052,0,.158.026.045.021.093.071.067.015.081-.038.076-.035.025,0,.034,0,.069.056.092.038.1.039.122.071.078.042.07.06.054-.005.048-.034h.052l.044.062.017.074.033.025.049.037.069.061.051.03.109.028.019.009.037.024.034.027.029.032.017.037.01.04.008.04.007.04.011.04.011.04,0,.04v.041l0,.041.006.041v.04l-.012.041-.033.025-.042.019-.03.031-.024.035-.021.036-.021.037-.02.037.01.039.027.033.04.02.044.016.04-.011.038-.021.045,0,.046.007.046,0h.048l.039.012.021.038.014.04.041.013.042-.007h0l.044,0,.041.017.038.024.034.028.041.016.044-.007.041-.019.038-.023.036-.025.036-.025.043-.014.039.02.036.026.043-.005.041-.018.039-.021.042-.018.044-.011.045-.01.042.01.04.02.043.016.043,0,.043-.015.045-.005.045-.006.045-.009.043-.014h.046l.037.023.039.021.042.017.045.007.044.01.043.015.044.013.042.016.015.012.018.016.022.035.015.039.012.039.017.038.015.038.01.04.009.041.009.04.02.035.038.023.042.016.038.023.034.028.026.033.022.035.033.028.038.022.041.019.042.016.037.022.025.034.034.028.041.016.046-.005.046,0,.042.015.039.022.039.022.04.019.042.016.044.012.045.008.042.016.04.02.04.021.042.015.039.011h0l.043.014.04.02.037.025.032.028.029.032.022.036.023.033.041.021.044.011h.047l.044.009.044.011.043.013.042.017.041.018.013,0,.03.01.042.017.039.022.037.024.036.025.035.027.034.027.035.027.035.026.036.025.038.023.039.021.039.021.039.022.04.019h.046l.045,0,.045.007.043.012.042.016.041.018.038.023.037.024.037.023.039.021.041.02.042.013.046,0,.044.006.043.015.042.016.042.016.042.016.042.016.038-.012.044,0,.047,0,.037.009.007,0,.042.017.04.02.038.023.044,0h.056l.036,0,.021,0,.025,0h0l.043-.005.044.01.042.016.042.017.045.006.045,0,.044.01.043.014.04.019.037.024.038.023.042.015.045.007h.046l.045,0,.045.008.044.01.043.014.043.013.045.009.044.009.045.007.11.012h0v.009l.034.026.006.041,0,.041-.009.04-.012.04-.012.039-.015.039-.016.039-.01.039,0,.015.006.025.032.029.046.009.048.008.044.009v.033l-.017.04-.015.039-.013.039-.009.04-.007.04-.009.041-.012.041-.007.039.03.024-.006.041-.013.039-.014.039-.014.039-.013.039-.012.039-.012.039-.011.04-.011.04-.01.04-.01.04-.009.04-.007.04-.011.04-.012.039-.013.039-.012.039-.011.04-.01.04-.009.04-.007.04,0,.041v.083l.01.038.035.026-.005.041-.007.04-.008.04-.008.04.016.026.047,0h.046l.045.011,0,.039-.006.041-.007.04-.007.04-.007.04-.011.042-.008.04.026.028.016.029,0,.037.033.031-.044.173.068.014-.12.335,0,.007-.067-.035-.008,0-.04-.021-.042-.016h-.046l-.043.015h-.044l-.043-.015-.042-.015-.041-.018-.039-.021-.04-.02-.042-.015-.042-.016-.043-.012h-.045l-.046.007-.044.011-.043.014-.044.011-.045.006-.046,0-.045-.006-.044-.011-.044-.013-.041-.018-.042-.018-.044-.007h-.092l-.044-.008-.04-.02-.043-.012h-.046l-.045.01-.044-.008-.045-.006-.044-.011-.043-.014-.01,0-.035-.009-.04-.018-.024-.034-.022-.037-.025-.034-.029-.031-.034-.028-.037-.024-.042-.014-.046,0-.045-.008h0l-.041-.008-.045-.007-.045-.005-.045-.007-.044-.01-.044-.009-.045,0h-.137l-.045,0-.045.006-.043.009-.035.027-.042.016-.045.005-.014,0-.032,0-.04-.021,0-.04.007-.033,0-.007,0-.041-.011-.041-.022-.033-.045-.012-.045,0-.046,0-.008,0-.035-.01-.035.028-.014.038,0,.041v.041l-.006.039h-.045l-.029-.033-.029-.022-.006,0-.036-.025-.033-.028-.032-.029-.034-.028-.034-.029-.034-.014,0,0-.046.009-.042-.007-.025-.036-.037-.017-.041.012-.036-.025-.02-.037-.03-.031-.037-.024-.048,0-.03.019-.019.039-.029.033-.034.026-.044.009-.047,0h-.046l-.038-.01-.007,0-.032-.028-.022-.036-.024-.035,0,0-.025-.031-.025-.027,0,0-.032-.03-.026-.033-.021-.036-.018-.038-.015-.039-.011-.04-.007-.04-.016-.038-.029-.032-.037-.025-.04-.021-.037-.022-.027-.033-.023-.036-.021-.037-.024-.034-.031-.03-.037-.025-.041-.017-.042-.015-.041-.019-.036-.025-.032-.029-.032-.029-.035-.026-.037-.024-.038-.022-.039-.021-.04-.02-.041-.018-.041-.018-.041-.02-.041-.016-.044-.007-.046,0h-.1l-.034,0-.045,0h-.045l-.045-.005-.044-.01-.045-.01-.044-.009-.044-.009-.045-.008-.045-.007-.045-.008-.044-.011-.045-.005h-.137l-.046,0-.043-.013-.042-.017-.042-.016-.043-.014-.043-.012-.045-.006h-.319l-.046,0-.045,0-.045-.007-.045,0h-.046l-.046,0h-.046l-.042.014-.037.024-.028.032-.029.031-.041.019-.043.013-.044.012h-.091l-.045-.007-.044-.012-.043-.013-.044-.009-.046,0-.045,0-.045-.005-.045-.005-.046,0h-.046l-.042.011-.036.026-.035.027-.036.026-.041.019-.042.016-.042.017-.044.008-.046,0-.043-.012-.025-.008-.018-.005h-.046l-.036.025h-.043l-.046-.007-.046,0-.046,0-.046,0h-.046l-.044.008-.043.015-.045.008-.045.006-.046,0-.047,0-.042.011-.033.027-.028.034-.027.033-.025.034-.02.037-.023.035-.034.026-.041.019-.046.01-.033.022-.019.039-.022.038-.034.021h-.048l-.038.021-.031.031-.025.034-.019.037-.021.036-.027.033-.035.026-.038.023-.106.031-.091.007h-.137l-.107.007-.122-.007-.069-.007-.084-.013-.126-.025-.02-.193-.011-.049-.011-.048-.012-.048-.014-.048-.017-.047-.019-.047-.019-.047-.018-.047-.017-.047-.017-.047-.017-.047-.017-.047-.017-.047-.017-.047-.018-.047-.018-.047-.017-.047-.015-.048-.011-.048-.008-.049-.007-.049-.008-.049-.01-.049-.013-.048-.016-.048-.02-.046-.022-.038,0-.006-.03-.044-.034-.042-.038-.036-.034-.017-.067.01-.052-.009-.049-.025-.047-.029-.043-.031-.041-.034L682,1248.1l-.052-.015-.055-.011-.053-.015-.049-.022-.048-.026-.048-.024-.051-.019-.053-.016-.054-.014-.054-.012-.054-.011-.055-.007-.055,0-.055-.008-.055-.01-.054-.011-.053-.013-.052-.018-.049-.023-.03-.013-.02-.009-.052-.016-.053-.014-.054-.012-.028-.005-.027,0-.031,0-.024,0-.056,0-.056,0h-.114l-.054-.007-.048-.019-.044-.03-.041-.036-.038-.037-.035-.038-.031-.042-.031-.042-.036-.037-.042-.031-.046-.028-.048-.026-.047-.027-.045-.029-.038-.037-.041-.033-.049-.023-.052-.019-.052-.019-.049-.022-.042-.032h0l-.012-.01-.027-.023-.047-.025-.05-.021-.051-.019-.012,0-.039-.014-.052-.018-.077-.027.219-.281.313-.207.242-.1.177-.1.038-.044.086-.1.13-.184.033-.042.111-.143.05-.237.055-.251.029-.169.215-.005.02-.095.02-.1.169-.244,0-.006.277-.367.17-.154.216-.035.246-.041.053-.02.12-.045.123-.128.058-.1.072-.12.193-.322.023-.051.095-.209.068-.143" transform="translate(-679.187 -1242.921)" fill-rule="evenodd"/>
    </g>
    <g id="g106" transform="translate(13.826 24.239)">
      <path id="path108" d="M1414.931,1393.751l.03.03.029.032.031.029.032.028.026.034.018.037.006.04.007.04.013.039.019.037.026.034.028.032.031.03.031.03.028.031.019.037.019.037.027.033.02.037.025.033.036.025.038.023.038.022.04.019.04.02.043.012.044.012.042.015.011,0,.031.012.039.021.041.018.041.018.037.023.038.025.026.03-.008.041-.015.039-.019.037-.017.038-.013.039-.008.04v.041l0,.041,0,.041,0,.041.007.04.019.037.027.033.026.034.022.036.014.038.008.04,0,.041,0,.041v.124l.026.03.038.024.033.028.032.029.04.019.045.011.044.011.039.017.017.025.007.01.033.027.039.022.041.018.043.013.043.014.042.017.037.023.025.021.008.007.016.028,0,.008.02.037.02.036.026.034.022.035.02.037.024.035.027.034.032.028.04.019.044.014.043.013.044.011.044.013.043.011.045.008.046,0,.044.008.042.017.042.015.042.015.041.019.034.027.027.033.028.033.03.031.025.034.016.038.015.039.02.037.015.038.009.04.006.041-.015.038-.031.03-.041.017-.017.038.007.039.006.007.022.026.026.033v.041l.009.04.022.035.029.032.031.03.03.031.028.032.029.031.028.026,0,0,.031.03.027.033.031.03.035.027.03.03.008.017.009.021.029.032.035.026.041.019.039.022.04.02.042.016.043.013.044.011.042.016.041.02.03.03.035.024.042.016.043.012.046,0,.044.011.042.015.042.016.039.021.038.023.037.024.038.023.038.022.04.02.039.02.03.031.029.032.029.031.022.036.024.035.027.039.031.03.031.03.033.028.039.022.038.023.036.025.034.027.034.028.033.029.043.013.046.005.045,0h.229l.045.005.044.01.043.014.039.021.022.035v.041l.021.036.023.035.019.037.014.039.02.036.029.032.029.031.031.03.033.029.034.027.036.025.026.034.02.037.018.038.011.039.005.04,0,.041.007.041.011.04.013.039.021.036.027.033.031.03.03.03.022.036.023.035.026.033.029.032.023.035.023.035.025.034.026.034.033.026.044.011.045.009.041.017.034.028.037.023.042.016.044.01.045.009.047,0,.02-.032-.027-.033-.012-.038v-.042l0-.04.039-.021.038-.024.044-.006.047,0,.037.021.033.029.036.025.039.022.043.014.043.014.042.017.041.018.036.025.029.032.022.036.008.021.007.018.012.039.011.04.092.029-.081.228-.032.088.093.073.114.089.161.2.2.044.087-.038.163-.071.244.16.042.028.3.208.014.057.084.347.061.3-.123.186-.109.183,0,0-.158.071-.149-.063-.113-.093-.063-.052-.112-.033-.119-.035-.054.018-.094.031.051.066.066.132-.075.081-.139-.036-.144-.021-.536-.111-.045-.007-.044-.01-.045-.006-.046,0-.091.005-.045,0-.046,0H1421l-.045.008-.036.024-.027.028-.047,0-.046.007-.039.021-.03.031-.045-.008-.04-.02-.044-.013-.045.006-.044.012-.044.012-.044.011-.045.005h-.092l-.043-.013-.038-.024-.032-.029-.025-.034-.013-.039-.009-.04-.031-.03h0l-.037-.021-.043-.012-.046,0h-.092l-.045.007-.044.012-.041.017-.037.024-.034.028-.033.029-.034.027-.038.023-.042.015h-.046l-.046,0-.044.006-.042.018-.039.021-.044.011-.044.012-.043.012-.043.014-.04.019-.036.028-.035.029-.039.008-.044-.011-.044-.019-.039-.022-.034-.028-.029-.031-.025-.034-.035-.027-.036-.026-.009-.04-.017-.038-.01-.014-.014-.021-.026-.033-.029-.032-.03-.032,0,0-.03-.02h-.047l-.045-.01-.038-.022-.038-.021-.047,0-.041.016-.04.02-.045.01-.043-.01-.041-.02-.036-.025-.034-.029-.036-.025-.042-.013h-.047l-.045.007-.045.009h-.092l-.045,0-.046,0-.046,0-.046.005h-.045l-.042-.016-.028-.032-.039-.022-.044-.007-.046,0-.045,0-.043.014-.043.016-.032.012-.01,0-.045.007h-.046l-.044.011-.043.014-.044.011h-.045l-.044-.013-.045-.008-.045,0-.038-.023-.032-.029-.045-.005-.046,0-.031-.024-.019-.035-.041-.019-.034-.027-.038-.025-.029-.03-.012-.04-.017-.038-.024-.036-.028-.015-.008,0h-.094l-.044-.009-.043-.015-.042-.015-.043-.015-.041-.018-.04-.02-.042-.016-.044-.012-.045-.007h-.046l-.044.01-.045.008h-.015l-.03,0h-.046l-.046,0-.046,0-.046,0-.046,0-.045,0-.044-.012-.044-.011-.047,0-.04-.016-.032-.03-.018-.037-.027-.03-.01,0-.035,0-.037-.021-.006-.041-.024-.036-.039-.019-.046,0-.045.009-.046.005-.046,0-.043.013-.041.018-.043.013h-.045l-.046,0-.046,0-.046,0-.044.011-.042.016-.043.012-.046,0h-.276l-.039.017-.033.03-.045.008-.037.021-.03.032-.032.031-.041.011h-.093l-.045.008-.045.009-.045.005h-.046l-.045-.006-.044-.01-.039-.007h-.1l-.044-.01-.045-.007-.046,0h-.046l-.046.01h-.043l-.04-.021-.044-.014-.018,0-.028-.006-.042,0-.035.028-.039.023h-.044l-.046-.006-.046,0-.043.01-.041.019-.042.017-.042.017-.042.017-.043.013-.045.008-.046,0h-.046l-.046,0-.045-.008-.045-.009-.044-.011-.044-.01-.043-.013-.042-.016-.045-.007h-.046l-.045.005-.046,0-.046,0-.045.008-.045.008-.045.005-.045,0-.046-.007-.044,0-.042.017-.044.012-.046,0-.046,0-.038-.022-.034-.028-.044-.013-.044.005-.039.021-.039.022-.044.013-.045,0-.02,0,.04-.4.094-.388.113-.374.031-.03.017-.038,0-.034v-.008l-.01,0-.033-.007-.042.014-.026.036-.031.031-.035.027-.043.011h-.046l-.046,0-.045-.007-.044-.013-.037-.023-.032-.029-.05-.066,0-.02.122-.535.123-.514.01,0,.043.014.044.011.045.006.045.008.045-.01h.046l.043.012.04.02.044.008h.092l.044.007.042.018.041.018.043.013.044.011.045.006.046,0,.045-.006.044-.011.043-.014.044-.011.046-.007h.045l.043.012.042.016.042.015.04.02.039.021.041.018.042.015.043.015h.044l.043-.015h.046l.042.016.04.021.008,0,.067.035,0-.007.12-.335-.068-.014.044-.173-.033-.031,0-.037-.016-.029-.026-.028.008-.04.011-.042.007-.04.007-.04.007-.04.006-.041,0-.039-.045-.011h-.046l-.047,0-.016-.026.008-.04.008-.04.006-.04.005-.041-.035-.026-.01-.038v-.083l0-.041.007-.04.009-.04.01-.04.011-.04.012-.039.013-.039.012-.039.011-.04.007-.04.009-.04.01-.04.01-.04.01-.04.011-.04.011-.039.012-.039.013-.039.014-.039.014-.039.013-.039.006-.041-.03-.024.007-.039.012-.041.009-.041.007-.04.009-.04.013-.039.015-.039.016-.04v-.033l-.044-.009-.048-.008-.046-.009-.032-.029-.006-.025,0-.015.01-.039.016-.039.015-.039.012-.039.012-.04.009-.04,0-.041-.006-.041-.034-.026v-.009h0l0-.029.011-.039.013-.04.013-.04.01-.04v-.042l.021-.033.031-.032.02-.036.007-.04,0-.041,0-.041.005-.041.005-.041.006-.04.007-.04.008-.04.009-.04.029-.031.039-.021.043-.007.014-.038-.034-.029-.032-.03-.011-.028,0-.01.011-.039.028-.034,0-.011.008-.027.006-.04,0-.041.005-.041.007-.041.007-.04.006-.04v-.081l0-.041.009-.04.014-.039.023-.035.034-.028.035-.028.011-.037,0-.042.008-.039.019-.037.021-.037.016-.038.009-.041.011-.039.031-.029.014-.04.019-.032.045-.008.047,0,.041.019.041.018.04.02.038.021.038-.022.027-.033.025-.034.024-.036.041-.014.034,0h.012l.045-.009.036-.025.021-.036.008-.041.011-.039.011-.039.01-.04,0-.041.008-.04.017-.038.022-.036.02-.036.019-.037.007-.04.007-.04.021-.039.028-.031.045,0,.037.024.037.025.039.023.041.012.046-.008h.045l.039-.023.04-.017.041.019.028.03.045.006.046,0h.046l.046.005.042.014.039.023.042.013.045-.005.045-.01.007,0,.037-.009.038-.021.045-.041" transform="translate(-1410.655 -1393.687)" fill-rule="evenodd"/>
    </g>
    <g id="g114" transform="translate(5.431 27.567)">
      <path id="path116" d="M908.38,1604.414l-.123.514-.122.535,0,.02.05.066.032.029.037.023.044.013.045.007.046,0h.046l.043-.011.035-.027.031-.031.026-.036.042-.014.033.007.01,0v.008l0,.034-.017.038-.031.03-.113.374-.094.388-.04.4-.025-.005-.047-.006-.044-.009-.032-.027-.027-.034-.029-.032-.029-.031-.029-.032-.029-.032-.034-.027-.037-.024-.04-.02-.041-.019-.036-.025-.033-.028-.034-.027-.036-.026-.036-.026-.032-.029-.032-.03-.038-.022-.043-.015-.043-.014-.043-.015-.042-.015-.043-.015-.044-.013-.044-.01-.045-.007-.045-.007-.045-.007-.045,0-.028.006-.016,0-.044.014-.043.015-.044.009h-.046l-.045,0-.043.015-.044.01h-.012l-.033,0h-.046l-.045-.006-.042-.016-.042-.016-.045-.009-.045-.006-.046,0-.044.009-.043.014-.043.014-.044.011-.044.01-.044.016-.028.032.005.036.041.024.008.031-.044.006-.044-.01-.044-.011-.043-.015-.043-.015-.023-.034-.018-.037-.039-.021-.044-.011-.043.012-.038.023-.034.027-.026.034-.034.026-.037.024-.039.021-.037.023-.037.024-.039.021-.04.018h0l-.043.014-.044.012-.044.012-.044.011-.044.008-.046.005-.045,0-.045-.005-.045-.009-.044-.011-.044-.01-.045-.008-.045-.008-.044-.01-.044-.01-.045-.007-.045,0-.046,0h-.045l-.046.005-.046,0-.045-.008-.044-.012-.042-.017-.039-.022-.033-.028-.02-.036-.022-.037-.025-.034-.036-.025-.046,0h0l-.042.009-.042.016-.044.01-.044.011-.044.007H903.9l-.046,0h-.046l-.045,0-.045.007-.045.009-.044.01-.043.015-.044.01-.045.007-.045.006-.045,0h-.046l-.045-.007-.044-.011-.045-.005-.046,0h-.092l-.047,0-.044.006-.039.02-.038.025-.037.024-.036.025-.037.024-.037.024-.04.02-.034.026-.027.033-.027.033-.029.032-.033.029-.034.028-.031.03-.019.037-.007.043-.022,0-.012,0-.023-.036-.023-.035-.024-.035-.026-.033-.034-.027-.032-.029-.029-.031-.029-.031-.029-.031-.029-.031-.03-.031-.031-.029-.033-.029-.034-.028-.035-.026-.038-.023-.039-.021-.04-.02-.041-.019-.04-.02-.04-.02-.039-.021-.039-.022-.04-.02-.042-.017-.039-.02-.035-.027-.028-.033-.016-.037-.01-.04-.012-.039-.023-.035-.035-.026-.04-.019-.041-.019-.039-.021-.035-.026-.031-.03-.027-.033-.02-.037-.017-.038-.024-.034-.031-.03-.033-.029-.033-.029-.033-.028-.033-.028-.034-.027-.034-.027-.032-.029-.03-.031-.024-.034-.014-.039-.005-.015-.008-.024-.02-.036-.026-.033-.029-.032-.031-.03-.033-.028-.034-.027-.029-.031-.026-.034-.023-.035-.022-.036-.024-.035-.026-.033-.028-.033-.028-.033-.029-.032-.031-.03-.034-.026-.039-.021-.042-.018-.724-.33.036-.1.045-.264,0-.083-.029-.158-.03-.164,0-.04,0-.023.126.025.084.014.069.007.122.007.107-.007h.137l.091-.007.106-.031.038-.023.035-.026.027-.033.021-.036.019-.037.025-.034.031-.031.038-.021h.048l.034-.021.022-.038.019-.039.033-.022.046-.01.041-.019.034-.026.022-.035.021-.037.025-.034.027-.033.028-.034.033-.027.042-.011.047,0,.046,0,.045-.006.045-.008.043-.015.044-.008h.046l.046,0,.046,0,.046,0,.046.007h.043l.036-.025h.046l.018.005.025.008.043.013.046,0,.044-.008.042-.017.042-.016.041-.019.036-.026.035-.027.036-.026.042-.012h.046l.046,0,.045.005.045.005.045,0,.046,0,.044.009.043.013.044.012.045.006h.091l.044-.012.043-.013.041-.019.029-.031.027-.032.037-.024.042-.014h.046l.046,0h.046l.045.005.045.007.045,0,.046,0h.32l.045.006.043.012.043.014.042.016.042.017.043.013.046,0h.137l.045.005.044.011.045.008.045.007.045.008.044.009.044.009.045.01.044.01.045.005h.045l.046,0,.034,0h.149l.044.007.041.016.041.02.041.018.041.018.04.02.039.021.038.022.037.024.035.026.032.029.032.029.036.025.041.019.042.015.041.017.037.025.031.03.024.034.021.036.023.036.027.033.037.022.04.02.037.025.029.032.016.038.007.04.011.04.015.038.018.038.021.036.026.033.032.03,0,0,.025.027.025.031,0,0,.024.035.022.036.032.028.007,0,.038.01h.046l.047,0,.044-.009.034-.026.029-.033.019-.039.03-.019.048,0,.037.024.03.031.02.037.036.025.041-.012.037.017.025.036.042.007.046-.009,0,0,.034.014.034.029.034.028.032.029.033.028.036.025.006,0,.029.022.029.033h.045l.006-.039v-.041l0-.041.014-.038.035-.028.035.01.008,0,.046,0,.045,0,.045.012.022.033.011.041,0,.041,0,.007-.007.033,0,.04.04.021.032,0,.014,0,.045-.005.042-.016.035-.027.043-.009.045-.006.046,0h.137l.045,0,.045.009.044.01.045.007.045.005.045.007.041.008h0l.045.008.046,0,.042.014.037.024.034.028.029.031.025.034.022.037.024.034.04.018.035.009" transform="translate(-899.41 -1602.619)" fill-rule="evenodd"/>
      <path id="path118" d="M902.056,1707.087l-.154.5-.092.3-.113.349.089.039-.114.427-.006,0-.044.005-.045-.009-.045-.011-.042-.016-.032-.027-.024-.036-.031-.029-.043-.015-.046,0-.045.005-.044.011-.045,0h-.229l-.046,0-.044.012-.041.018-.042.016-.043.015-.044.008-.046,0-.045-.007-.044-.012-.044-.012-.044-.013-.038-.022-.037-.024-.042-.016H900.3l-.027.03-.009.041-.02.037-.035.026-.044.012-.044.011-.044.011-.043.015-.037.023-.029.032-.033.029-.035.026-.039.02-.043.015-.044.016-.043.014-.022-.032-.022-.038-.044-.011-.041,0H899.6l-.045.011-.045.008-.045.007-.045,0-.046,0-.045,0-.045.007-.045.005-.046,0h-.138l-.045.005-.041.017-.04.021-.044.012-.045.008-.045.007-.045.005h-.046l-.046,0-.045-.007-.043-.014-.041-.019-.041-.018-.039-.02-.036-.025-.034-.028-.034-.027-.034-.028-.028-.032-.024-.035-.027-.033-.028-.032-.025-.034-.024-.035-.029-.031-.037-.024-.045-.006H898l-.045,0-.041-.017-.041-.018-.046-.007-.038-.022-.014-.011-.021-.017-.043-.009-.047,0-.041.017-.037.026-.032.029-.029.032-.034.027-.037.024-.035.027-.033.028-.032.029-.03.031-.018.036-.007.041-.008.04-.007.04-.015.038-.02.038-.027.031-.04.02-.037.023-.027.033-.02.037-.013.039-.007.041-.005.041,0,.041v.041l-.007.041-.007.041v.04l.009.022.006.016.028.034.034.027.04.021.04.021.041.02.031.027.012.04.011.04,0,.04v.041l0,.041v.041l.005.04.008.04.009.04.013.039.016.038.007.04v.081l0,.041,0,.041-.008.04-.014.039-.021.036-.023.035-.015.028,0,.009-.015.039-.011.04-.005.04v.041l0,.041,0,.041,0,.04-.016.038-.011.04-.011.038h0l-.022.035-.026.035-.029.033-.015.036.009.041.015.039.016.038.013.039.009.04.007.04.007.041.005.04,0,.041,0,.041,0,.041,0,.041-.007.04-.014.039-.008.04,0,.041,0,.041,0,.041v.041l-.007.04-.008.04,0,.041,0,.041v.041l.012.039.089.255-.562.177-.061.021-.048.017.023.218-.019.167-.029.113-.084.148-.136.14-.011.035-.04.124-.068.219-.037.2-.045.048-.061.065-.166.057-.194-.11-.126-.222-.029-.2v0l-.018-.171-.006-.219-.036-.227-.038-.254.007-.323-.019-.327v-.011l-.122-.425-.124-.273-.04-.087-.132-.321-.1-.335v0l-.088-.208-.174-.045-.4.053h0l-.266.055-.111-.162-.2-.215-.023-.066-.054-.152-.016-.369v-.3l-.147-.231,0-.007-.059-.174-.037-.241v-.007l-.165-.183-.213-.225-.075-.2-.045-.119-.021-.033-.171-.267.008-.311,0-.078.04-.29-.09-.23-.037-.125-.071-.241.05-.281.016-.248.006-.086-.094-.269.034-.279.032-.09.052-.144.724.33.042.018.039.021.034.026.031.03.029.032.028.033.028.033.026.033.024.035.021.036.023.035.026.034.029.031.034.027.033.028.031.03.029.032.026.033.02.036.008.024.005.015.014.039.024.034.03.031.032.029.034.027.034.027.034.028.033.028.033.029.033.029.031.03.024.034.017.038.02.037.027.033.031.03.035.026.039.021.041.019.04.019.035.026.023.035.012.039.011.04.016.038.028.033.035.027.039.02.042.017.04.019.039.022.039.021.04.02.04.02.04.019.04.02.039.021.038.023.035.026.034.028.033.029.031.029.03.031.029.031.029.031.029.031.029.031.032.029.034.027.026.033.024.035.023.035.023.036.012,0,.022,0,.007-.043.019-.037.031-.03.034-.028.032-.029.029-.032.027-.033.027-.033.034-.026.04-.02.037-.024.037-.024.036-.025.037-.024.038-.025.039-.02.044-.006.047,0h.137l.045.005.044.011.045.007h.046l.045-.005.045-.006.045-.007.044-.01.043-.015.044-.01.045-.009.045-.007.045,0h.046l.046,0h.046l.044-.007.044-.011.044-.01.042-.016.042-.009h0l.046,0,.036.025.025.034.022.037.021.036.033.028.039.022.042.017.044.012.045.008.045,0,.046-.006h.045l.046,0,.045,0,.045.007.044.01.044.01.045.008.045.008.044.01.044.011.045.009.046.005.045,0,.046-.005.044-.008.044-.012.044-.012.044-.011.043-.014h0l.04-.018.04-.021.037-.024.037-.023.039-.021.037-.024.034-.026.026-.034.034-.027.038-.023.043-.013.044.012.039.021.018.037.023.035.043.015.043.015.044.011.044.01.044-.006-.008-.031-.041-.024,0-.036.028-.032.044-.016.044-.01.044-.011.043-.014.043-.014.044-.009.046,0,.045.006.045.009.042.016.042.016.045.006h.046l.033,0h.012l.044-.01.043-.015.045,0h.046l.044-.009.043-.015.044-.013.016,0,.028-.006.045,0,.046.007.045.007.045.008.044.01.044.013.043.015.043.015.043.015.043.014.043.015.038.022.032.03.032.029.036.026.036.026.034.027.033.028.036.025.041.019.04.02.037.024.034.027.029.032.029.032.029.031.029.031.027.034.032.027.044.009.047.006.025.005.02,0,.045,0,.044-.013.039-.022.039-.021.044-.006.043.013.034.028.038.022.046,0,.046,0,.044-.012.042-.017.044,0,.046.007" transform="translate(-892.495 -1702.936)" fill-rule="evenodd"/>
      <path id="path120" d="M1448.677,1832.166l-.039.049-.223.28.044.09.485.994.2.405.485.994.067.138.13.267.212.433.134.273-.342.073-.483.1-.332.07-.258.745-.147.422-.335.967-.071.035-.434.216-.3.147-.131,0-.692-.254-.007,0-.018-.216-.237-.021h-.008l-.329-.028-.088.324-.181.427,0,.01-.245.215-.135.037-.041.023.085.43-.343-.166-.222-.118-.387-.207-.47-.25-.159-.079-.468-.231-.4-.195-.4-.2-.7-.367-.354-.186-.562.161-.42.234-.175.118-.327.221-.123.083-.056.039.008-.038.307-1.5.092-.449h0l-1.155-.2.107-.47.1-.446-1.044-.2,0-.021.117-.582.172-.857-.49-.087.052-.2.137-.539-.044-.012-.044-.008-.036-.027-.013-.039.024-.031.042-.02.036-.025.036-.026.038-.024.023-.033-.02-.033-.046-.013-.046,0h-.046l-.042.012-.037.025-.034.028-.039.019-.045.01-.04.018-.033.029-.039.022-.036.015.114-.427-.089-.039.113-.349.092-.3.154-.5.044,0,.046-.005.045-.008.045-.008.046,0,.046,0,.045-.005h.046l.045.006.042.016.043.013.044.011.044.011.045.009.045.008.045,0h.046l.046,0,.045-.007.043-.013.042-.017.042-.017.042-.017.041-.019.043-.01.046,0,.046.006h.044l.039-.023.035-.028.042,0,.028.006.018,0,.044.014.04.021h.044l.046-.01h.046l.046,0,.045.006.044.01h.1l.039.007.044.01.045.006h.046l.045-.005.045-.009.045-.008h.093l.041-.011.032-.031.03-.032.037-.021.045-.008.033-.03.039-.017h.276l.046,0,.043-.012.042-.016.044-.011.046,0,.046,0,.046,0h.045l.043-.013.041-.018.042-.013.046,0,.046-.005.045-.009.046,0,.039.019.024.036.006.041.037.021.035,0,.01,0,.027.03.018.037.032.03.04.016.047,0,.044.011.044.012.046,0,.046,0,.045,0,.046,0,.046,0h.046l.03,0h.015l.045-.008.045-.01h.045l.045.007.044.012.042.016.04.02.041.018.042.015.042.015.043.015.044.009h.094l.008,0,.028.015.024.036.017.038.011.04.029.03.037.025.034.027.041.02.019.035.032.024.046,0,.045.005.032.03.038.023.045,0,.045.008.044.013h.045l.044-.011.043-.014.044-.011h.046l.045-.007.01,0,.033-.012.042-.016.043-.014.045,0,.046,0,.044.007.039.022.028.032.042.016h.045l.046-.005.046,0,.045,0,.045,0h.092l.045-.009.045-.007h.047l.042.013.036.025.034.029.036.025.041.02.043.01.045-.01.04-.02.041-.016.047,0,.038.021.038.022.045.01h.047l.03.02,0,0,.03.032.029.032.026.033.015.021.01.014.017.038.009.04.036.026.035.027.025.034.029.031.034.028.039.022.044.019.044.011.039-.008.035-.029.036-.028.04-.019.043-.014.044-.012.044-.012.044-.011.039-.021.042-.017.045-.006.046,0h.046l.042-.015.038-.023.034-.027.033-.029.034-.028.037-.024.041-.017.044-.012.045-.007.046,0h.046l.046,0,.043.012.037.021h0l.031.03.009.04.013.039.025.034.032.029.038.024.043.013h.092l.045-.005.044-.011.044-.012.044-.012.044-.006.044.013.04.02.045.008.03-.031.039-.021.046-.007.047,0,.027-.028.036-.024.045-.008h.046l.046,0,.045,0,.091-.006.045,0,.045.006.044.01.045.007.536.111" transform="translate(-1428.671 -1827.191)" fill-rule="evenodd"/>
    </g>
    <g id="g126" transform="translate(9.812 33.024)">
      <path id="path128" d="M1167.9,1927.219l.036-.015.039-.022.033-.029.039-.018.045-.01.039-.019.034-.028.037-.025.042-.012h.046l.046,0,.046.013.02.033-.023.033-.038.025-.036.026-.036.025-.042.02-.024.031.013.039.036.027.044.008.044.011-.137.539-.052.2.49.087-.172.857-.117.582,0,.021,1.044.2-.1.446-.107.47,1.155.2h0l-.092.449-.307,1.5-.008.037-.552.379-.264.2-.317.278-.026.022-.064.159-.012.028-.109.271-.122.457-.135.366-.011.029-.094.088-.155.145-.047.044-.156.058-.12.044-.479-.022-.442-.1-.145-.109-.047-.035-.092-.12-.258-.335-.689-.03-.185-.174-.059-.151-.04-.1-.083-.21-.2-.423-.127-.317-.073-.183-.018-.045-.032-.159-.021-.1-.053-.261-.055-.36-.1-.379-.01-.038-.253-.412h0l-.317-.339v0l-.247-.2-.214-.2,0,0-.036.011-.089-.255-.012-.039v-.041l0-.041,0-.041.007-.04.007-.04v-.041l0-.041,0-.041,0-.041.008-.04.014-.039.007-.04,0-.041,0-.041,0-.041,0-.041-.005-.04-.007-.041-.007-.04-.009-.04-.013-.039-.016-.038-.015-.039-.009-.041.015-.036.029-.033.026-.035.022-.035h0l.011-.039.011-.04.016-.038,0-.04,0-.041,0-.041v-.041l.005-.04.011-.04.015-.038,0-.009.015-.028.023-.035.021-.036.014-.039.008-.04,0-.041,0-.041v-.081l-.007-.04-.016-.039-.013-.039-.009-.04-.008-.04-.005-.04v-.041l0-.041v-.041l0-.04-.011-.039-.012-.04-.031-.027-.041-.02-.04-.021-.04-.021-.034-.027-.028-.034-.006-.016-.009-.022v-.04l.007-.041.006-.041v-.041l0-.041.005-.041.007-.041.013-.039.02-.037.027-.033.037-.023.04-.02.027-.032.02-.038.015-.038.007-.04.007-.04.007-.041.018-.037.03-.031.032-.029.033-.028.035-.027.037-.024.034-.027.029-.032.032-.029.037-.026.041-.017.047,0,.043.009.021.017.014.011.038.022.045.007.041.018.041.017.045,0h.046l.046.007.037.024.029.032.024.035.025.034.028.032.027.033.024.035.028.032.034.028.034.027.034.028.036.025.039.02.041.019.041.019.043.014.045.007.046,0h.046l.045-.005.045-.007.045-.008.044-.012.04-.021.041-.017.045-.005h.138l.046,0,.045-.005.045-.007.045,0,.046,0,.045,0,.045-.007.045-.008.045-.01h.005l.041,0,.044.011.022.038.022.033.043-.014.043-.016.043-.015.039-.02.035-.026.033-.029.029-.031.037-.023.043-.015.044-.011.044-.011.044-.012.035-.026.02-.036.009-.041.027-.03h.046l.042.016.037.024.038.022.043.013.044.012.044.012.045.007.046,0,.044-.008.043-.015.042-.016.041-.018.044-.012.046,0h.229l.046,0,.044-.011.045-.005.046,0,.043.014.031.029.024.036.032.027.042.016.045.011.045.009.044-.005.006,0" transform="translate(-1163.275 -1926.905)" fill-rule="evenodd"/>
    </g>
  </g>
</svg>
